<svg xmlns="http://www.w3.org/2000/svg" height="400" width="400" id="_poly_13"><path d=" M -18.529434710170833 -7.457616725986447 L 22.145716335474276 -2.736627096120432 L 27.36916208511237 24.680795010703743 L -10.224795111932306 27.832160319273438 Z" fill="#dd4e6c" hover="true" style="--hoverfill:#dd4e6c4d;"></path><path d=" M 22.145716335474276 -2.736627096120432 L 70.813523709904 -5.377237005085793 L 72.81074183731933 33.615996154004876 L 27.36916208511237 24.680795010703743 Z" fill="#d94c7d" hover="true" style="--hoverfill:#d94c7d4d;"></path><path d=" M 70.813523709904 -5.377237005085793 L 101.52865914758003 -8.074223645971026 L 111.3433864155823 29.192730153403147 L 72.81074183731933 33.615996154004876 Z" fill="#d54a8c" hover="true" style="--hoverfill:#d54a8c4d;"></path><path d=" M 101.52865914758003 -8.074223645971026 L 140.09723400370848 -7.062721689698486 L 159.28408937936334 20.473488171170715 L 111.3433864155823 29.192730153403147 Z" fill="#cf499a" hover="true" style="--hoverfill:#cf499a4d;"></path><path d=" M 140.09723400370848 -7.062721689698486 L 190.71645373428632 -4.610671290441037 L 185.40480622083842 28.256597299871324 L 159.28408937936334 20.473488171170715 Z" fill="#ca48a8" hover="true" style="--hoverfill:#ca48a84d;"></path><path d=" M 190.71645373428632 -4.610671290441037 L 227.9225594728628 -5.1983673712526945 L 227.64745170243694 25.14434245699753 L 185.40480622083842 28.256597299871324 Z" fill="#c547b3" hover="true" style="--hoverfill:#c547b34d;"></path><path d=" M 227.9225594728628 -5.1983673712526945 L 275.2281424665244 -6.711847398920696 L 266.32530026179774 23.51239642205526 L 227.64745170243694 25.14434245699753 Z" fill="#c046bf" hover="true" style="--hoverfill:#c046bf4d;"></path><path d=" M 275.2281424665244 -6.711847398920696 L 307.48092923089325 -17.578002398778562 L 317.44527011692946 35.85422048940755 L 266.32530026179774 23.51239642205526 Z" fill="#aa45b9" hover="true" style="--hoverfill:#aa45b94d;"></path><path d=" M 307.48092923089325 -17.578002398778562 L 340.4231073035703 -3.5232493525086594 L 347.3503936230865 20.310357949146628 L 317.44527011692946 35.85422048940755 Z" fill="#9847b2" hover="true" style="--hoverfill:#9847b24d;"></path><path d=" M 340.4231073035703 -3.5232493525086594 L 393.3202647378049 -10.037460718220972 L 382.493226025956 35.7831398622857 L 347.3503936230865 20.310357949146628 Z" fill="#8849ab" hover="true" style="--hoverfill:#8849ab4d;"></path><path d=" M 393.3202647378049 -10.037460718220972 L 425.0895466356808 -18.755413249114817 L 439.99914334352866 27.68205061046214 L 382.493226025956 35.7831398622857 Z" fill="#794ba3" hover="true" style="--hoverfill:#794ba34d;"></path><path d=" M 425.0895466356808 -18.755413249114817 L 478.15358098891966 -16.982608618344273 L 478.92015990740094 21.245960847022467 L 439.99914334352866 27.68205061046214 Z" fill="#774ba2" hover="true" style="--hoverfill:#774ba24d;"></path><path d=" M -10.224795111932306 27.832160319273438 L 27.36916208511237 24.680795010703743 L 36.28747982576804 73.46268523349792 L -1.7623577513785937 64.82881181803174 Z" fill="#e04f60" hover="true" style="--hoverfill:#e04f604d;"></path><path d=" M 27.36916208511237 24.680795010703743 L 72.81074183731933 33.615996154004876 L 72.96653614636901 62.750646425508776 L 36.28747982576804 73.46268523349792 Z" fill="#dc4e70" hover="true" style="--hoverfill:#dc4e704d;"></path><path d=" M 72.81074183731933 33.615996154004876 L 111.3433864155823 29.192730153403147 L 112.62934244625181 62.50724705421747 L 72.96653614636901 62.750646425508776 Z" fill="#d84c80" hover="true" style="--hoverfill:#d84c804d;"></path><path d=" M 111.3433864155823 29.192730153403147 L 159.28408937936334 20.473488171170715 L 144.18362785351783 71.69662833377059 L 112.62934244625181 62.50724705421747 Z" fill="#d34a8f" hover="true" style="--hoverfill:#d34a8f4d;"></path><path d=" M 159.28408937936334 20.473488171170715 L 185.40480622083842 28.256597299871324 L 181.04507846160132 70.44279841232225 L 144.18362785351783 71.69662833377059 Z" fill="#cf499b" hover="true" style="--hoverfill:#cf499b4d;"></path><path d=" M 185.40480622083842 28.256597299871324 L 227.64745170243694 25.14434245699753 L 229.9980615750094 78.3001853565342 L 181.04507846160132 70.44279841232225 Z" fill="#cb48a7" hover="true" style="--hoverfill:#cb48a74d;"></path><path d=" M 227.64745170243694 25.14434245699753 L 266.32530026179774 23.51239642205526 L 262.5379388568289 78.06136412012197 L 229.9980615750094 78.3001853565342 Z" fill="#c647b2" hover="true" style="--hoverfill:#c647b24d;"></path><path d=" M 266.32530026179774 23.51239642205526 L 317.44527011692946 35.85422048940755 L 303.140411222165 70.44650147357893 L 262.5379388568289 78.06136412012197 Z" fill="#c046be" hover="true" style="--hoverfill:#c046be4d;"></path><path d=" M 317.44527011692946 35.85422048940755 L 347.3503936230865 20.310357949146628 L 340.7740655953701 61.75450230170281 L 303.140411222165 70.44650147357893 Z" fill="#ac45ba" hover="true" style="--hoverfill:#ac45ba4d;"></path><path d=" M 347.3503936230865 20.310357949146628 L 382.493226025956 35.7831398622857 L 386.474796063185 72.07236735219827 L 340.7740655953701 61.75450230170281 Z" fill="#9947b2" hover="true" style="--hoverfill:#9947b24d;"></path><path d=" M 382.493226025956 35.7831398622857 L 439.99914334352866 27.68205061046214 L 423.86023991797526 64.51691286866898 L 386.474796063185 72.07236735219827 Z" fill="#8949ac" hover="true" style="--hoverfill:#8949ac4d;"></path><path d=" M 439.99914334352866 27.68205061046214 L 478.92015990740094 21.245960847022467 L 473.90009337410135 75.19486496472764 L 423.86023991797526 64.51691286866898 Z" fill="#8949ab" hover="true" style="--hoverfill:#8949ab4d;"></path><path d=" M -1.7623577513785937 64.82881181803174 L 36.28747982576804 73.46268523349792 L 39.22425156020453 119.20701922576343 L -4.275489351217239 102.9294135596354 Z" fill="#e45251" hover="true" style="--hoverfill:#e452514d;"></path><path d=" M 36.28747982576804 73.46268523349792 L 72.96653614636901 62.750646425508776 L 74.93589717038235 113.83878033085463 L 39.22425156020453 119.20701922576343 Z" fill="#e14f5f" hover="true" style="--hoverfill:#e14f5f4d;"></path><path d=" M 72.96653614636901 62.750646425508776 L 112.62934244625181 62.50724705421747 L 106.21008695518546 103.5179443968892 L 74.93589717038235 113.83878033085463 Z" fill="#dc4e71" hover="true" style="--hoverfill:#dc4e714d;"></path><path d=" M 112.62934244625181 62.50724705421747 L 144.18362785351783 71.69662833377059 L 143.89090854409528 108.15265525658837 L 106.21008695518546 103.5179443968892 Z" fill="#d94c7e" hover="true" style="--hoverfill:#d94c7e4d;"></path><path d=" M 144.18362785351783 71.69662833377059 L 181.04507846160132 70.44279841232225 L 191.95439756451879 116.44260439242964 L 143.89090854409528 108.15265525658837 Z" fill="#d54a8a" hover="true" style="--hoverfill:#d54a8a4d;"></path><path d=" M 181.04507846160132 70.44279841232225 L 229.9980615750094 78.3001853565342 L 229.45429610499448 102.42139508521389 L 191.95439756451879 116.44260439242964 Z" fill="#d04999" hover="true" style="--hoverfill:#d049994d;"></path><path d=" M 229.9980615750094 78.3001853565342 L 262.5379388568289 78.06136412012197 L 269.564988888561 115.96535839881089 L 229.45429610499448 102.42139508521389 Z" fill="#cb48a6" hover="true" style="--hoverfill:#cb48a64d;"></path><path d=" M 262.5379388568289 78.06136412012197 L 303.140411222165 70.44650147357893 L 302.7242984335827 101.9914745536671 L 269.564988888561 115.96535839881089 Z" fill="#c646b2" hover="true" style="--hoverfill:#c646b24d;"></path><path d=" M 303.140411222165 70.44650147357893 L 340.7740655953701 61.75450230170281 L 356.07428303350315 109.60570974559391 L 302.7242984335827 101.9914745536671 Z" fill="#c046bf" hover="true" style="--hoverfill:#c046bf4d;"></path><path d=" M 340.7740655953701 61.75450230170281 L 386.474796063185 72.07236735219827 L 399.60992884073727 103.0110541681987 L 356.07428303350315 109.60570974559391 Z" fill="#aa45ba" hover="true" style="--hoverfill:#aa45ba4d;"></path><path d=" M 386.474796063185 72.07236735219827 L 423.86023991797526 64.51691286866898 L 420.1186439028204 110.51188857771453 L 399.60992884073727 103.0110541681987 Z" fill="#9b47b4" hover="true" style="--hoverfill:#9b47b44d;"></path><path d=" M 423.86023991797526 64.51691286866898 L 473.90009337410135 75.19486496472764 L 462.39123249027364 107.66760582292441 L 420.1186439028204 110.51188857771453 Z" fill="#9c47b4" hover="true" style="--hoverfill:#9c47b44d;"></path><path d=" M -4.275489351217239 102.9294135596354 L 39.22425156020453 119.20701922576343 L 30.140731310956635 148.76472372417524 L -17.294753013486627 158.10830523586682 Z" fill="#e96b54" hover="true" style="--hoverfill:#e96b544d;"></path><path d=" M 39.22425156020453 119.20701922576343 L 74.93589717038235 113.83878033085463 L 78.6966351626515 158.92740006431734 L 30.140731310956635 148.76472372417524 Z" fill="#e55652" hover="true" style="--hoverfill:#e556524d;"></path><path d=" M 74.93589717038235 113.83878033085463 L 106.21008695518546 103.5179443968892 L 118.77248269847013 151.47740992827303 L 78.6966351626515 158.92740006431734 Z" fill="#e14f5f" hover="true" style="--hoverfill:#e14f5f4d;"></path><path d=" M 106.21008695518546 103.5179443968892 L 143.89090854409528 108.15265525658837 L 150.38713463280504 159.22525614532444 L 118.77248269847013 151.47740992827303 Z" fill="#dd4d6d" hover="true" style="--hoverfill:#dd4d6d4d;"></path><path d=" M 143.89090854409528 108.15265525658837 L 191.95439756451879 116.44260439242964 L 198.63587763553193 149.58561035038517 L 150.38713463280504 159.22525614532444 Z" fill="#d94c7d" hover="true" style="--hoverfill:#d94c7d4d;"></path><path d=" M 191.95439756451879 116.44260439242964 L 229.45429610499448 102.42139508521389 L 226.51454872781846 157.37238637685527 L 198.63587763553193 149.58561035038517 Z" fill="#d44a8d" hover="true" style="--hoverfill:#d44a8d4d;"></path><path d=" M 229.45429610499448 102.42139508521389 L 269.564988888561 115.96535839881089 L 271.2687733491033 142.28813248838242 L 226.51454872781846 157.37238637685527 Z" fill="#d0499b" hover="true" style="--hoverfill:#d0499b4d;"></path><path d=" M 269.564988888561 115.96535839881089 L 302.7242984335827 101.9914745536671 L 319.79058846968866 158.27449807844863 L 271.2687733491033 142.28813248838242 Z" fill="#ca47a9" hover="true" style="--hoverfill:#ca47a94d;"></path><path d=" M 302.7242984335827 101.9914745536671 L 356.07428303350315 109.60570974559391 L 354.11985069527134 145.030436787697 L 319.79058846968866 158.27449807844863 Z" fill="#c446b5" hover="true" style="--hoverfill:#c446b54d;"></path><path d=" M 356.07428303350315 109.60570974559391 L 399.60992884073727 103.0110541681987 L 387.91413442774257 148.9047606739668 L 354.11985069527134 145.030436787697 Z" fill="#bc46bf" hover="true" style="--hoverfill:#bc46bf4d;"></path><path d=" M 399.60992884073727 103.0110541681987 L 420.1186439028204 110.51188857771453 L 423.37107479165917 159.715482355344 L 387.91413442774257 148.9047606739668 Z" fill="#b145bc" hover="true" style="--hoverfill:#b145bc4d;"></path><path d=" M 420.1186439028204 110.51188857771453 L 462.39123249027364 107.66760582292441 L 465.2699388939444 142.554205950545 L 423.37107479165917 159.715482355344 Z" fill="#b145bc" hover="true" style="--hoverfill:#b145bc4d;"></path><path d=" M -17.294753013486627 158.10830523586682 L 30.140731310956635 148.76472372417524 L 29.97164514287558 196.36258257910634 L -18.151372135826445 194.64893219383185 Z" fill="#ed8657" hover="true" style="--hoverfill:#ed86574d;"></path><path d=" M 30.140731310956635 148.76472372417524 L 78.6966351626515 158.92740006431734 L 73.8251474208078 197.94207318566586 L 29.97164514287558 196.36258257910634 Z" fill="#e96d55" hover="true" style="--hoverfill:#e96d554d;"></path><path d=" M 78.6966351626515 158.92740006431734 L 118.77248269847013 151.47740992827303 L 109.19063122002132 197.3902018235536 L 73.8251474208078 197.94207318566586 Z" fill="#e55752" hover="true" style="--hoverfill:#e557524d;"></path><path d=" M 118.77248269847013 151.47740992827303 L 150.38713463280504 159.22525614532444 L 154.3930222373708 196.8383376406869 L 109.19063122002132 197.3902018235536 Z" fill="#e1505d" hover="true" style="--hoverfill:#e1505d4d;"></path><path d=" M 150.38713463280504 159.22525614532444 L 198.63587763553193 149.58561035038517 L 198.6110913894742 188.03742497570428 L 154.3930222373708 196.8383376406869 Z" fill="#dd4d6f" hover="true" style="--hoverfill:#dd4d6f4d;"></path><path d=" M 198.63587763553193 149.58561035038517 L 226.51454872781846 157.37238637685527 L 224.11892112699186 190.45898638410125 L 198.6110913894742 188.03742497570428 Z" fill="#d94c7e" hover="true" style="--hoverfill:#d94c7e4d;"></path><path d=" M 226.51454872781846 157.37238637685527 L 271.2687733491033 142.28813248838242 L 263.1391348826187 190.32530823635145 L 224.11892112699186 190.45898638410125 Z" fill="#d44a8b" hover="true" style="--hoverfill:#d44a8b4d;"></path><path d=" M 271.2687733491033 142.28813248838242 L 319.79058846968866 158.27449807844863 L 306.85486789538015 190.7239707822681 L 263.1391348826187 190.32530823635145 Z" fill="#cf499a" hover="true" style="--hoverfill:#cf499a4d;"></path><path d=" M 319.79058846968866 158.27449807844863 L 354.11985069527134 145.030436787697 L 354.09585098355575 199.7648447922406 L 306.85486789538015 190.7239707822681 Z" fill="#ca47a8" hover="true" style="--hoverfill:#ca47a84d;"></path><path d=" M 354.11985069527134 145.030436787697 L 387.91413442774257 148.9047606739668 L 384.96528259588126 186.7824043858755 L 354.09585098355575 199.7648447922406 Z" fill="#c546b4" hover="true" style="--hoverfill:#c546b44d;"></path><path d=" M 387.91413442774257 148.9047606739668 L 423.37107479165917 159.715482355344 L 428.4013462331162 182.91892074069375 L 384.96528259588126 186.7824043858755 Z" fill="#c146bd" hover="true" style="--hoverfill:#c146bd4d;"></path><path d=" M 423.37107479165917 159.715482355344 L 465.2699388939444 142.554205950545 L 475.04073513964335 186.82371782656512 L 428.4013462331162 182.91892074069375 Z" fill="#c146bd" hover="true" style="--hoverfill:#c146bd4d;"></path><path d=" M -18.151372135826445 194.64893219383185 L 29.97164514287558 196.36258257910634 L 36.06466615988995 221.07529781018508 L -3.750090453652364 222.31521814708196 Z" fill="#f09659" hover="true" style="--hoverfill:#f096594d;"></path><path d=" M 29.97164514287558 196.36258257910634 L 73.8251474208078 197.94207318566586 L 74.95761496161326 233.51660981617758 L 36.06466615988995 221.07529781018508 Z" fill="#ec8157" hover="true" style="--hoverfill:#ec81574d;"></path><path d=" M 73.8251474208078 197.94207318566586 L 109.19063122002132 197.3902018235536 L 117.0423264086418 232.72563418155437 L 74.95761496161326 233.51660981617758 Z" fill="#e96c54" hover="true" style="--hoverfill:#e96c544d;"></path><path d=" M 109.19063122002132 197.3902018235536 L 154.3930222373708 196.8383376406869 L 141.90915913003704 231.05180315652947 L 117.0423264086418 232.72563418155437 Z" fill="#e55952" hover="true" style="--hoverfill:#e559524d;"></path><path d=" M 154.3930222373708 196.8383376406869 L 198.6110913894742 188.03742497570428 L 180.37273304407665 231.62575987621915 L 141.90915913003704 231.05180315652947 Z" fill="#e1505d" hover="true" style="--hoverfill:#e1505d4d;"></path><path d=" M 198.6110913894742 188.03742497570428 L 224.11892112699186 190.45898638410125 L 235.21638947361873 236.07060577481556 L 180.37273304407665 231.62575987621915 Z" fill="#dd4e6e" hover="true" style="--hoverfill:#dd4e6e4d;"></path><path d=" M 224.11892112699186 190.45898638410125 L 263.1391348826187 190.32530823635145 L 263.91697940715267 222.47923821372882 L 235.21638947361873 236.07060577481556 Z" fill="#d94c7c" hover="true" style="--hoverfill:#d94c7c4d;"></path><path d=" M 263.1391348826187 190.32530823635145 L 306.85486789538015 190.7239707822681 L 306.5065634140225 237.14617155070164 L 263.91697940715267 222.47923821372882 Z" fill="#d54a8b" hover="true" style="--hoverfill:#d54a8b4d;"></path><path d=" M 306.85486789538015 190.7239707822681 L 354.09585098355575 199.7648447922406 L 344.24568830436874 222.67104466624474 L 306.5065634140225 237.14617155070164 Z" fill="#d0499a" hover="true" style="--hoverfill:#d0499a4d;"></path><path d=" M 354.09585098355575 199.7648447922406 L 384.96528259588126 186.7824043858755 L 391.4797649297555 237.2615752760062 L 344.24568830436874 222.67104466624474 Z" fill="#cb48a8" hover="true" style="--hoverfill:#cb48a84d;"></path><path d=" M 384.96528259588126 186.7824043858755 L 428.4013462331162 182.91892074069375 L 432.8422782792738 229.04454480239102 L 391.4797649297555 237.2615752760062 Z" fill="#c647b2" hover="true" style="--hoverfill:#c647b24d;"></path><path d=" M 428.4013462331162 182.91892074069375 L 475.04073513964335 186.82371782656512 L 463.41259237417773 236.56557452288166 L 432.8422782792738 229.04454480239102 Z" fill="#c647b2" hover="true" style="--hoverfill:#c647b24d;"></path><path d=" M -3.750090453652364 222.31521814708196 L 36.06466615988995 221.07529781018508 L 23.22823724674047 263.95617678745987 L -15.483734288746476 263.8403230373845 Z" fill="#f3aa5c" hover="true" style="--hoverfill:#f3aa5c4d;"></path><path d=" M 36.06466615988995 221.07529781018508 L 74.95761496161326 233.51660981617758 L 67.86928039346387 274.39013225653207 L 23.22823724674047 263.95617678745987 Z" fill="#f09759" hover="true" style="--hoverfill:#f097594d;"></path><path d=" M 74.95761496161326 233.51660981617758 L 117.0423264086418 232.72563418155437 L 113.44917402303359 277.4365777816255 L 67.86928039346387 274.39013225653207 Z" fill="#ed8257" hover="true" style="--hoverfill:#ed82574d;"></path><path d=" M 117.0423264086418 232.72563418155437 L 141.90915913003704 231.05180315652947 L 143.99761736615577 272.5120027012752 L 113.44917402303359 277.4365777816255 Z" fill="#ea6e54" hover="true" style="--hoverfill:#ea6e544d;"></path><path d=" M 141.90915913003704 231.05180315652947 L 180.37273304407665 231.62575987621915 L 182.90508916729277 278.4619031220617 L 143.99761736615577 272.5120027012752 Z" fill="#e75c52" hover="true" style="--hoverfill:#e75c524d;"></path><path d=" M 180.37273304407665 231.62575987621915 L 235.21638947361873 236.07060577481556 L 223.93893952524803 277.5292283155162 L 182.90508916729277 278.4619031220617 Z" fill="#e2505a" hover="true" style="--hoverfill:#e2505a4d;"></path><path d=" M 235.21638947361873 236.07060577481556 L 263.91697940715267 222.47923821372882 L 274.2829999783945 277.6132147759061 L 223.93893952524803 277.5292283155162 Z" fill="#de4e6c" hover="true" style="--hoverfill:#de4e6c4d;"></path><path d=" M 263.91697940715267 222.47923821372882 L 306.5065634140225 237.14617155070164 L 307.9945187452597 266.2967129773405 L 274.2829999783945 277.6132147759061 Z" fill="#d94c7c" hover="true" style="--hoverfill:#d94c7c4d;"></path><path d=" M 306.5065634140225 237.14617155070164 L 344.24568830436874 222.67104466624474 L 343.8069987899412 277.1687191341179 L 307.9945187452597 266.2967129773405 Z" fill="#d44b8a" hover="true" style="--hoverfill:#d44b8a4d;"></path><path d=" M 344.24568830436874 222.67104466624474 L 391.4797649297555 237.2615752760062 L 396.1409310054428 262.77673772369633 L 343.8069987899412 277.1687191341179 Z" fill="#cf499a" hover="true" style="--hoverfill:#cf499a4d;"></path><path d=" M 391.4797649297555 237.2615752760062 L 432.8422782792738 229.04454480239102 L 436.3295441500888 269.3312609754006 L 396.1409310054428 262.77673772369633 Z" fill="#cc48a5" hover="true" style="--hoverfill:#cc48a54d;"></path><path d=" M 432.8422782792738 229.04454480239102 L 463.41259237417773 236.56557452288166 L 470.12401617955106 262.6582785404781 L 436.3295441500888 269.3312609754006 Z" fill="#cc48a5" hover="true" style="--hoverfill:#cc48a54d;"></path><path d=" M -15.483734288746476 263.8403230373845 L 23.22823724674047 263.95617678745987 L 37.579692030184134 310.3336364708463 L -19.43548826058414 305.43798631901046 Z" fill="#f6c460" hover="true" style="--hoverfill:#f6c4604d;"></path><path d=" M 23.22823724674047 263.95617678745987 L 67.86928039346387 274.39013225653207 L 67.75378973795402 301.6569738422252 L 37.579692030184134 310.3336364708463 Z" fill="#f3ad5c" hover="true" style="--hoverfill:#f3ad5c4d;"></path><path d=" M 67.86928039346387 274.39013225653207 L 113.44917402303359 277.4365777816255 L 102.44107105961376 316.3722988554147 L 67.75378973795402 301.6569738422252 Z" fill="#f19a59" hover="true" style="--hoverfill:#f19a594d;"></path><path d=" M 113.44917402303359 277.4365777816255 L 143.99761736615577 272.5120027012752 L 140.7409567370555 313.2328973854116 L 102.44107105961376 316.3722988554147 Z" fill="#ed8757" hover="true" style="--hoverfill:#ed87574d;"></path><path d=" M 143.99761736615577 272.5120027012752 L 182.90508916729277 278.4619031220617 L 180.5834690428219 317.2386347008339 L 140.7409567370555 313.2328973854116 Z" fill="#ea7355" hover="true" style="--hoverfill:#ea73554d;"></path><path d=" M 182.90508916729277 278.4619031220617 L 223.93893952524803 277.5292283155162 L 234.91465662810964 318.1469834785068 L 180.5834690428219 317.2386347008339 Z" fill="#e65d52" hover="true" style="--hoverfill:#e65d524d;"></path><path d=" M 223.93893952524803 277.5292283155162 L 274.2829999783945 277.6132147759061 L 266.33427865527904 313.64453814902214 L 234.91465662810964 318.1469834785068 Z" fill="#e2505b" hover="true" style="--hoverfill:#e2505b4d;"></path><path d=" M 274.2829999783945 277.6132147759061 L 307.9945187452597 266.2967129773405 L 300.9031723834679 317.45420569787905 L 266.33427865527904 313.64453814902214 Z" fill="#de4e6c" hover="true" style="--hoverfill:#de4e6c4d;"></path><path d=" M 307.9945187452597 266.2967129773405 L 343.8069987899412 277.1687191341179 L 354.81911518877945 318.31913836979317 L 300.9031723834679 317.45420569787905 Z" fill="#d94d7b" hover="true" style="--hoverfill:#d94d7b4d;"></path><path d=" M 343.8069987899412 277.1687191341179 L 396.1409310054428 262.77673772369633 L 396.0880913794334 318.60138842400465 L 354.81911518877945 318.31913836979317 Z" fill="#d44a8c" hover="true" style="--hoverfill:#d44a8c4d;"></path><path d=" M 396.1409310054428 262.77673772369633 L 436.3295441500888 269.3312609754006 L 430.5057183425106 304.6564491463619 L 396.0880913794334 318.60138842400465 Z" fill="#d04998" hover="true" style="--hoverfill:#d049984d;"></path><path d=" M 436.3295441500888 269.3312609754006 L 470.12401617955106 262.6582785404781 L 468.53664592519135 306.10543035875884 L 430.5057183425106 304.6564491463619 Z" fill="#d04998" hover="true" style="--hoverfill:#d049984d;"></path><path d=" M -19.43548826058414 305.43798631901046 L 37.579692030184134 310.3336364708463 L 28.446467663155296 352.07410269152643 L -19.209950002344915 343.6938160642995 Z" fill="#f9db63" hover="true" style="--hoverfill:#f9db634d;"></path><path d=" M 37.579692030184134 310.3336364708463 L 67.75378973795402 301.6569738422252 L 62.39773090855128 349.35037706765996 L 28.446467663155296 352.07410269152643 Z" fill="#f6c45f" hover="true" style="--hoverfill:#f6c45f4d;"></path><path d=" M 67.75378973795402 301.6569738422252 L 102.44107105961376 316.3722988554147 L 117.66684812637256 341.5719902661922 L 62.39773090855128 349.35037706765996 Z" fill="#f3ae5c" hover="true" style="--hoverfill:#f3ae5c4d;"></path><path d=" M 102.44107105961376 316.3722988554147 L 140.7409567370555 313.2328973854116 L 140.4205821768826 350.9951439290983 L 117.66684812637256 341.5719902661922 Z" fill="#f09b5a" hover="true" style="--hoverfill:#f09b5a4d;"></path><path d=" M 140.7409567370555 313.2328973854116 L 180.5834690428219 317.2386347008339 L 199.58533871393954 352.6244588904307 L 140.4205821768826 350.9951439290983 Z" fill="#ed8657" hover="true" style="--hoverfill:#ed86574d;"></path><path d=" M 180.5834690428219 317.2386347008339 L 234.91465662810964 318.1469834785068 L 232.1521776976629 341.62763877593494 L 199.58533871393954 352.6244588904307 Z" fill="#e96c54" hover="true" style="--hoverfill:#e96c544d;"></path><path d=" M 234.91465662810964 318.1469834785068 L 266.33427865527904 313.64453814902214 L 263.5453716127104 348.32541781611064 L 232.1521776976629 341.62763877593494 Z" fill="#e55752" hover="true" style="--hoverfill:#e557524d;"></path><path d=" M 266.33427865527904 313.64453814902214 L 300.9031723834679 317.45420569787905 L 316.244610623679 343.4379208972629 L 263.5453716127104 348.32541781611064 Z" fill="#e2505c" hover="true" style="--hoverfill:#e2505c4d;"></path><path d=" M 300.9031723834679 317.45420569787905 L 354.81911518877945 318.31913836979317 L 347.31460271691424 351.620223271748 L 316.244610623679 343.4379208972629 Z" fill="#dd4d6d" hover="true" style="--hoverfill:#dd4d6d4d;"></path><path d=" M 354.81911518877945 318.31913836979317 L 396.0880913794334 318.60138842400465 L 395.7410860097059 343.4947930414211 L 347.31460271691424 351.620223271748 Z" fill="#d84c7e" hover="true" style="--hoverfill:#d84c7e4d;"></path><path d=" M 396.0880913794334 318.60138842400465 L 430.5057183425106 304.6564491463619 L 430.3540286543919 348.105799704314 L 395.7410860097059 343.4947930414211 Z" fill="#d54b89" hover="true" style="--hoverfill:#d54b894d;"></path><path d=" M 430.5057183425106 304.6564491463619 L 468.53664592519135 306.10543035875884 L 468.39767106066773 358.6873147223004 L 430.3540286543919 348.105799704314 Z" fill="#d54b89" hover="true" style="--hoverfill:#d54b894d;"></path><path d=" M -19.209950002344915 343.6938160642995 L 28.446467663155296 352.07410269152643 L 31.11228475765825 382.2792780039401 L -15.256665501265697 394.8497834758604 Z" fill="#fcf266" hover="true" style="--hoverfill:#fcf2664d;"></path><path d=" M 28.446467663155296 352.07410269152643 L 62.39773090855128 349.35037706765996 L 75.07306875930675 394.0174193453577 L 31.11228475765825 382.2792780039401 Z" fill="#f9db62" hover="true" style="--hoverfill:#f9db624d;"></path><path d=" M 62.39773090855128 349.35037706765996 L 117.66684812637256 341.5719902661922 L 106.56643904338021 391.93518519073825 L 75.07306875930675 394.0174193453577 Z" fill="#f6c45f" hover="true" style="--hoverfill:#f6c45f4d;"></path><path d=" M 117.66684812637256 341.5719902661922 L 140.4205821768826 350.9951439290983 L 151.6172608032787 389.98911965325885 L 106.56643904338021 391.93518519073825 Z" fill="#f3ae5c" hover="true" style="--hoverfill:#f3ae5c4d;"></path><path d=" M 140.4205821768826 350.9951439290983 L 199.58533871393954 352.6244588904307 L 182.47870673270484 389.1137363459605 L 151.6172608032787 389.98911965325885 Z" fill="#f0995a" hover="true" style="--hoverfill:#f0995a4d;"></path><path d=" M 199.58533871393954 352.6244588904307 L 232.1521776976629 341.62763877593494 L 239.68904635959822 382.8826968024333 L 182.47870673270484 389.1137363459605 Z" fill="#ec7d56" hover="true" style="--hoverfill:#ec7d564d;"></path><path d=" M 232.1521776976629 341.62763877593494 L 263.5453716127104 348.32541781611064 L 278.400028230619 389.89178346463433 L 239.68904635959822 382.8826968024333 Z" fill="#e86754" hover="true" style="--hoverfill:#e867544d;"></path><path d=" M 263.5453716127104 348.32541781611064 L 316.244610623679 343.4379208972629 L 300.314463536432 381.5959153972758 L 278.400028230619 389.89178346463433 Z" fill="#e55452" hover="true" style="--hoverfill:#e554524d;"></path><path d=" M 316.244610623679 343.4379208972629 L 347.31460271691424 351.620223271748 L 345.07026032126805 392.0589561650433 L 300.314463536432 381.5959153972758 Z" fill="#e1505f" hover="true" style="--hoverfill:#e1505f4d;"></path><path d=" M 347.31460271691424 351.620223271748 L 395.7410860097059 343.4947930414211 L 390.002005945209 387.43595903224343 L 345.07026032126805 392.0589561650433 Z" fill="#dd4d6e" hover="true" style="--hoverfill:#dd4d6e4d;"></path><path d=" M 395.7410860097059 343.4947930414211 L 430.3540286543919 348.105799704314 L 435.14123468565566 396.36524989826336 L 390.002005945209 387.43595903224343 Z" fill="#d94c7a" hover="true" style="--hoverfill:#d94c7a4d;"></path><path d=" M 430.3540286543919 348.105799704314 L 468.39767106066773 358.6873147223004 L 475.7057782425482 385.89312153983195 L 435.14123468565566 396.36524989826336 Z" fill="#da4c79" hover="true" style="--hoverfill:#da4c794d;"></path><path d=" M -15.256665501265697 394.8497834758604 L 31.11228475765825 382.2792780039401 L 24.382371255133428 433.09359987206585 L -10.651684029362958 421.66759436403083 Z" fill="#f9fe69" hover="true" style="--hoverfill:#f9fe694d;"></path><path d=" M 31.11228475765825 382.2792780039401 L 75.07306875930675 394.0174193453577 L 69.10026094451908 423.61528470549325 L 24.382371255133428 433.09359987206585 Z" fill="#fbeb65" hover="true" style="--hoverfill:#fbeb654d;"></path><path d=" M 75.07306875930675 394.0174193453577 L 106.56643904338021 391.93518519073825 L 100.52555647239005 422.2759490261325 L 69.10026094451908 423.61528470549325 Z" fill="#f8d662" hover="true" style="--hoverfill:#f8d6624d;"></path><path d=" M 106.56643904338021 391.93518519073825 L 151.6172608032787 389.98911965325885 L 145.57001200330626 434.38254328861575 L 100.52555647239005 422.2759490261325 Z" fill="#f5c15f" hover="true" style="--hoverfill:#f5c15f4d;"></path><path d=" M 151.6172608032787 389.98911965325885 L 182.47870673270484 389.1137363459605 L 188.6187018548247 435.2000667599549 L 145.57001200330626 434.38254328861575 Z" fill="#f3aa5c" hover="true" style="--hoverfill:#f3aa5c4d;"></path><path d=" M 182.47870673270484 389.1137363459605 L 239.68904635959822 382.8826968024333 L 236.67502278166347 436.9034667279059 L 188.6187018548247 435.2000667599549 Z" fill="#ef9159" hover="true" style="--hoverfill:#ef91594d;"></path><path d=" M 239.68904635959822 382.8826968024333 L 278.400028230619 389.89178346463433 L 271.88200612767145 432.7134868776238 L 236.67502278166347 436.9034667279059 Z" fill="#eb7956" hover="true" style="--hoverfill:#eb79564d;"></path><path d=" M 278.400028230619 389.89178346463433 L 300.314463536432 381.5959153972758 L 316.6976712559529 429.58235880092275 L 271.88200612767145 432.7134868776238 Z" fill="#e86553" hover="true" style="--hoverfill:#e865534d;"></path><path d=" M 300.314463536432 381.5959153972758 L 345.07026032126805 392.0589561650433 L 350.9838178209627 426.8103328450839 L 316.6976712559529 429.58235880092275 Z" fill="#e45252" hover="true" style="--hoverfill:#e452524d;"></path><path d=" M 345.07026032126805 392.0589561650433 L 390.002005945209 387.43595903224343 L 395.8953191415086 438.33774438944624 L 350.9838178209627 426.8103328450839 Z" fill="#e04f62" hover="true" style="--hoverfill:#e04f624d;"></path><path d=" M 390.002005945209 387.43595903224343 L 435.14123468565566 396.36524989826336 L 426.4475570926011 434.56533195748165 L 395.8953191415086 438.33774438944624 Z" fill="#dd4e6e" hover="true" style="--hoverfill:#dd4e6e4d;"></path><path d=" M 435.14123468565566 396.36524989826336 L 475.7057782425482 385.89312153983195 L 463.75204288335925 438.38513464889536 L 426.4475570926011 434.56533195748165 Z" fill="#dd4e6e" hover="true" style="--hoverfill:#dd4e6e4d;"></path><path d=" M -10.651684029362958 421.66759436403083 L 24.382371255133428 433.09359987206585 L 30.078433401202787 469.1245701780365 L -16.175191949614888 467.0528176284568 Z" fill="#f9fe69" hover="true" style="--hoverfill:#f9fe694d;"></path><path d=" M 24.382371255133428 433.09359987206585 L 69.10026094451908 423.61528470549325 L 77.21943548746333 475.0959259930867 L 30.078433401202787 469.1245701780365 Z" fill="#fbeb65" hover="true" style="--hoverfill:#fbeb654d;"></path><path d=" M 69.10026094451908 423.61528470549325 L 100.52555647239005 422.2759490261325 L 100.66906949281805 478.89518790360285 L 77.21943548746333 475.0959259930867 Z" fill="#f8d762" hover="true" style="--hoverfill:#f8d7624d;"></path><path d=" M 100.52555647239005 422.2759490261325 L 145.57001200330626 434.38254328861575 L 148.2712782973442 475.3504857092287 L 100.66906949281805 478.89518790360285 Z" fill="#f6c25f" hover="true" style="--hoverfill:#f6c25f4d;"></path><path d=" M 145.57001200330626 434.38254328861575 L 188.6187018548247 435.2000667599549 L 194.7523643213187 474.25925208417533 L 148.2712782973442 475.3504857092287 Z" fill="#f2a95c" hover="true" style="--hoverfill:#f2a95c4d;"></path><path d=" M 188.6187018548247 435.2000667599549 L 236.67502278166347 436.9034667279059 L 227.22535213616396 471.8715154849768 L 194.7523643213187 474.25925208417533 Z" fill="#ef9159" hover="true" style="--hoverfill:#ef91594d;"></path><path d=" M 236.67502278166347 436.9034667279059 L 271.88200612767145 432.7134868776238 L 279.76247600735746 476.20719109147876 L 227.22535213616396 471.8715154849768 Z" fill="#eb7a56" hover="true" style="--hoverfill:#eb7a564d;"></path><path d=" M 271.88200612767145 432.7134868776238 L 316.6976712559529 429.58235880092275 L 315.7524656705077 469.0524469786432 L 279.76247600735746 476.20719109147876 Z" fill="#e76353" hover="true" style="--hoverfill:#e763534d;"></path><path d=" M 316.6976712559529 429.58235880092275 L 350.9838178209627 426.8103328450839 L 357.9812368409359 473.68800456415397 L 315.7524656705077 469.0524469786432 Z" fill="#e45154" hover="true" style="--hoverfill:#e451544d;"></path><path d=" M 350.9838178209627 426.8103328450839 L 395.8953191415086 438.33774438944624 L 399.3374508488661 478.3899157105793 L 357.9812368409359 473.68800456415397 Z" fill="#df4f65" hover="true" style="--hoverfill:#df4f654d;"></path><path d=" M 395.8953191415086 438.33774438944624 L 426.4475570926011 434.56533195748165 L 430.90089700566404 471.83315030862815 L 399.3374508488661 478.3899157105793 Z" fill="#dd4e6e" hover="true" style="--hoverfill:#dd4e6e4d;"></path><path d=" M 426.4475570926011 434.56533195748165 L 463.75204288335925 438.38513464889536 L 472.7692311960317 465.3779636400012 L 430.90089700566404 471.83315030862815 Z" fill="#dd4e6e" hover="true" style="--hoverfill:#dd4e6e4d;"></path></svg>