<svg xmlns="http://www.w3.org/2000/svg" height="400" width="400" id="_poly_4"><path d=" M 221.354722059195 220.82480223423352 L 195.99720692246706 199.64666812622764 L 192.8523864152974 233.07358019691247 Z" fill="#57ff21" hover="true" style="--hoverfill:#57ff214d;"></path><path d=" M 221.354722059195 220.82480223423352 L 234.25544087899215 184.5567018987076 L 195.99720692246706 199.64666812622764 Z" fill="#55ff1f" hover="true" style="--hoverfill:#55ff1f4d;"></path><path d=" M 195.99720692246706 199.64666812622764 L 153.96122282816296 221.90510253076485 L 192.8523864152974 233.07358019691247 Z" fill="#44ff15" hover="true" style="--hoverfill:#44ff154d;"></path><path d=" M 195.03476163194125 158.22557606464022 L 154.11919350688146 185.0366034480927 L 195.99720692246706 199.64666812622764 Z" fill="#23ff02" hover="true" style="--hoverfill:#23ff024d;"></path><path d=" M 195.99720692246706 199.64666812622764 L 154.11919350688146 185.0366034480927 L 153.96122282816296 221.90510253076485 Z" fill="#2aff06" hover="true" style="--hoverfill:#2aff064d;"></path><path d=" M 234.25544087899215 184.5567018987076 L 195.03476163194125 158.22557606464022 L 195.99720692246706 199.64666812622764 Z" fill="#3bff10" hover="true" style="--hoverfill:#3bff104d;"></path><path d=" M 263.02499605836533 270.82876098985315 L 265.7558909078574 222.6230318386143 L 221.354722059195 220.82480223423352 Z" fill="#8aff43" hover="true" style="--hoverfill:#8aff434d;"></path><path d=" M 221.354722059195 220.82480223423352 L 265.7558909078574 222.6230318386143 L 234.25544087899215 184.5567018987076 Z" fill="#6eff2f" hover="true" style="--hoverfill:#6eff2f4d;"></path><path d=" M 151.88397454839054 265.9230728045512 L 182.23414211817345 278.27241974111905 L 192.8523864152974 233.07358019691247 Z" fill="#62ff27" hover="true" style="--hoverfill:#62ff274d;"></path><path d=" M 192.8523864152974 233.07358019691247 L 228.61089816206635 276.3633256936815 L 221.354722059195 220.82480223423352 Z" fill="#74ff33" hover="true" style="--hoverfill:#74ff334d;"></path><path d=" M 182.23414211817345 278.27241974111905 L 228.61089816206635 276.3633256936815 L 192.8523864152974 233.07358019691247 Z" fill="#79ff37" hover="true" style="--hoverfill:#79ff374d;"></path><path d=" M 279.6526170312026 145.9587209760815 L 224.0336510115646 155.07662477570366 L 234.25544087899215 184.5567018987076 Z" fill="#4cff1a" hover="true" style="--hoverfill:#4cff1a4d;"></path><path d=" M 234.25544087899215 184.5567018987076 L 224.0336510115646 155.07662477570366 L 195.03476163194125 158.22557606464022 Z" fill="#36ff0d" hover="true" style="--hoverfill:#36ff0d4d;"></path><path d=" M 111.42183403516123 229.57504698196294 L 151.88397454839054 265.9230728045512 L 153.96122282816296 221.90510253076485 Z" fill="#31ff0a" hover="true" style="--hoverfill:#31ff0a4d;"></path><path d=" M 153.96122282816296 221.90510253076485 L 151.88397454839054 265.9230728045512 L 192.8523864152974 233.07358019691247 Z" fill="#4aff19" hover="true" style="--hoverfill:#4aff194d;"></path><path d=" M 228.61089816206635 276.3633256936815 L 263.02499605836533 270.82876098985315 L 221.354722059195 220.82480223423352 Z" fill="#8eff46" hover="true" style="--hoverfill:#8eff464d;"></path><path d=" M 312.28767296160294 191.06510577582628 L 275.8352768185944 182.74762069688757 L 265.7558909078574 222.6230318386143 Z" fill="#87ff41" hover="true" style="--hoverfill:#87ff414d;"></path><path d=" M 265.7558909078574 222.6230318386143 L 275.8352768185944 182.74762069688757 L 234.25544087899215 184.5567018987076 Z" fill="#72ff32" hover="true" style="--hoverfill:#72ff324d;"></path><path d=" M 152.68665419593515 318.5464692566347 L 191.07746951926327 306.9302469176381 L 182.23414211817345 278.27241974111905 Z" fill="#82ff3e" hover="true" style="--hoverfill:#82ff3e4d;"></path><path d=" M 182.23414211817345 278.27241974111905 L 191.07746951926327 306.9302469176381 L 228.61089816206635 276.3633256936815 Z" fill="#8aff43" hover="true" style="--hoverfill:#8aff434d;"></path><path d=" M 228.61089816206635 276.3633256936815 L 276.02579207170146 305.45886041964934 L 263.02499605836533 270.82876098985315 Z" fill="#acff5e" hover="true" style="--hoverfill:#acff5e4d;"></path><path d=" M 195.03476163194125 158.22557606464022 L 142.79617871865963 148.55515238824097 L 154.11919350688146 185.0366034480927 Z" fill="#0eef00" hover="true" style="--hoverfill:#0eef004d;"></path><path d=" M 116.92572476840034 182.62632956641033 L 111.42183403516123 229.57504698196294 L 153.96122282816296 221.90510253076485 Z" fill="#14f400" hover="true" style="--hoverfill:#14f4004d;"></path><path d=" M 155.83923160398865 113.96175387023034 L 142.79617871865963 148.55515238824097 L 195.03476163194125 158.22557606464022 Z" fill="#03e300" hover="true" style="--hoverfill:#03e3004d;"></path><path d=" M 116.92572476840034 182.62632956641033 L 153.96122282816296 221.90510253076485 L 154.11919350688146 185.0366034480927 Z" fill="#14f400" hover="true" style="--hoverfill:#14f4004d;"></path><path d=" M 151.88397454839054 265.9230728045512 L 152.68665419593515 318.5464692566347 L 182.23414211817345 278.27241974111905 Z" fill="#6eff2f" hover="true" style="--hoverfill:#6eff2f4d;"></path><path d=" M 142.79617871865963 148.55515238824097 L 116.92572476840034 182.62632956641033 L 154.11919350688146 185.0366034480927 Z" fill="#06e600" hover="true" style="--hoverfill:#06e6004d;"></path><path d=" M 191.07746951926327 306.9302469176381 L 223.2107483305428 313.1501849016547 L 228.61089816206635 276.3633256936815 Z" fill="#9bff50" hover="true" style="--hoverfill:#9bff504d;"></path><path d=" M 275.8352768185944 182.74762069688757 L 279.6526170312026 145.9587209760815 L 234.25544087899215 184.5567018987076 Z" fill="#62ff28" hover="true" style="--hoverfill:#62ff284d;"></path><path d=" M 224.0336510115646 155.07662477570366 L 186.5779381676627 110.12143599083862 L 195.03476163194125 158.22557606464022 Z" fill="#16f600" hover="true" style="--hoverfill:#16f6004d;"></path><path d=" M 236.96648709629693 103.90592497766048 L 186.5779381676627 110.12143599083862 L 224.0336510115646 155.07662477570366 Z" fill="#14f500" hover="true" style="--hoverfill:#14f5004d;"></path><path d=" M 106.6259707983391 112.24299498835018 L 116.79603128255559 151.00217050505879 L 142.79617871865963 148.55515238824097 Z" fill="#00cc10" hover="true" style="--hoverfill:#00cc104d;"></path><path d=" M 142.79617871865963 148.55515238824097 L 116.79603128255559 151.00217050505879 L 116.92572476840034 182.62632956641033 Z" fill="#00da05" hover="true" style="--hoverfill:#00da054d;"></path><path d=" M 116.92572476840034 182.62632956641033 L 77.03338624104421 192.41404793549424 L 111.42183403516123 229.57504698196294 Z" fill="#03e300" hover="true" style="--hoverfill:#03e3004d;"></path><path d=" M 61.58127144782993 226.6656348066474 L 104.6233459149199 267.6769927505525 L 111.42183403516123 229.57504698196294 Z" fill="#11f200" hover="true" style="--hoverfill:#11f2004d;"></path><path d=" M 111.42183403516123 229.57504698196294 L 104.6233459149199 267.6769927505525 L 151.88397454839054 265.9230728045512 Z" fill="#30ff0a" hover="true" style="--hoverfill:#30ff0a4d;"></path><path d=" M 316.1266633729175 223.63995415503237 L 312.28767296160294 191.06510577582628 L 265.7558909078574 222.6230318386143 Z" fill="#99ff4f" hover="true" style="--hoverfill:#99ff4f4d;"></path><path d=" M 275.8352768185944 182.74762069688757 L 312.9402819931929 153.53127895273656 L 279.6526170312026 145.9587209760815 Z" fill="#6eff30" hover="true" style="--hoverfill:#6eff304d;"></path><path d=" M 111.47201966238083 318.5001566666079 L 152.68665419593515 318.5464692566347 L 151.88397454839054 265.9230728045512 Z" fill="#66ff2a" hover="true" style="--hoverfill:#66ff2a4d;"></path><path d=" M 191.07746951926327 306.9302469176381 L 223.9336006629906 343.756541405973 L 223.2107483305428 313.1501849016547 Z" fill="#a8ff5b" hover="true" style="--hoverfill:#a8ff5b4d;"></path><path d=" M 309.05848401649905 263.40162864827727 L 265.7558909078574 222.6230318386143 L 263.02499605836533 270.82876098985315 Z" fill="#a6ff5a" hover="true" style="--hoverfill:#a6ff5a4d;"></path><path d=" M 309.05848401649905 263.40162864827727 L 316.1266633729175 223.63995415503237 L 265.7558909078574 222.6230318386143 Z" fill="#a8ff5b" hover="true" style="--hoverfill:#a8ff5b4d;"></path><path d=" M 186.5779381676627 110.12143599083862 L 155.83923160398865 113.96175387023034 L 195.03476163194125 158.22557606464022 Z" fill="#04e400" hover="true" style="--hoverfill:#04e4004d;"></path><path d=" M 223.2107483305428 313.1501849016547 L 276.02579207170146 305.45886041964934 L 228.61089816206635 276.3633256936815 Z" fill="#acff5f" hover="true" style="--hoverfill:#acff5f4d;"></path><path d=" M 276.02579207170146 305.45886041964934 L 309.05848401649905 263.40162864827727 L 263.02499605836533 270.82876098985315 Z" fill="#b9ff69" hover="true" style="--hoverfill:#b9ff694d;"></path><path d=" M 279.6526170312026 145.9587209760815 L 236.96648709629693 103.90592497766048 L 224.0336510115646 155.07662477570366 Z" fill="#34ff0c" hover="true" style="--hoverfill:#34ff0c4d;"></path><path d=" M 312.28767296160294 191.06510577582628 L 312.9402819931929 153.53127895273656 L 275.8352768185944 182.74762069688757 Z" fill="#82ff3d" hover="true" style="--hoverfill:#82ff3d4d;"></path><path d=" M 279.6526170312026 145.9587209760815 L 278.8329198673424 101.19037274852721 L 236.96648709629693 103.90592497766048 Z" fill="#35ff0c" hover="true" style="--hoverfill:#35ff0c4d;"></path><path d=" M 349.1403682823167 190.94221017961974 L 312.9402819931929 153.53127895273656 L 312.28767296160294 191.06510577582628 Z" fill="#95ff4b" hover="true" style="--hoverfill:#95ff4b4d;"></path><path d=" M 70.67317501888036 146.54053197185218 L 77.03338624104421 192.41404793549424 L 116.92572476840034 182.62632956641033 Z" fill="#00cd0f" hover="true" style="--hoverfill:#00cd0f4d;"></path><path d=" M 180.89477030604934 353.37940209105994 L 223.9336006629906 343.756541405973 L 191.07746951926327 306.9302469176381 Z" fill="#a8ff5b" hover="true" style="--hoverfill:#a8ff5b4d;"></path><path d=" M 223.2107483305428 313.1501849016547 L 223.9336006629906 343.756541405973 L 276.02579207170146 305.45886041964934 Z" fill="#b8ff69" hover="true" style="--hoverfill:#b8ff694d;"></path><path d=" M 79.89889176031832 317.2602978586896 L 111.47201966238083 318.5001566666079 L 104.6233459149199 267.6769927505525 Z" fill="#44ff15" hover="true" style="--hoverfill:#44ff154d;"></path><path d=" M 104.6233459149199 267.6769927505525 L 111.47201966238083 318.5001566666079 L 151.88397454839054 265.9230728045512 Z" fill="#4aff19" hover="true" style="--hoverfill:#4aff194d;"></path><path d=" M 152.68665419593515 318.5464692566347 L 180.89477030604934 353.37940209105994 L 191.07746951926327 306.9302469176381 Z" fill="#93ff4a" hover="true" style="--hoverfill:#93ff4a4d;"></path><path d=" M 143.60085100931678 342.48983350279 L 180.89477030604934 353.37940209105994 L 152.68665419593515 318.5464692566347 Z" fill="#91ff48" hover="true" style="--hoverfill:#91ff484d;"></path><path d=" M 314.0895006507663 114.29249941582391 L 278.8329198673424 101.19037274852721 L 279.6526170312026 145.9587209760815 Z" fill="#4eff1c" hover="true" style="--hoverfill:#4eff1c4d;"></path><path d=" M 111.47201966238083 318.5001566666079 L 143.60085100931678 342.48983350279 L 152.68665419593515 318.5464692566347 Z" fill="#78ff36" hover="true" style="--hoverfill:#78ff364d;"></path><path d=" M 77.03338624104421 192.41404793549424 L 61.58127144782993 226.6656348066474 L 111.42183403516123 229.57504698196294 Z" fill="#00e000" hover="true" style="--hoverfill:#00e0004d;"></path><path d=" M 155.83923160398865 113.96175387023034 L 106.6259707983391 112.24299498835018 L 142.79617871865963 148.55515238824097 Z" fill="#00cc10" hover="true" style="--hoverfill:#00cc104d;"></path><path d=" M 116.79603128255559 151.00217050505879 L 70.67317501888036 146.54053197185218 L 116.92572476840034 182.62632956641033 Z" fill="#00cd0f" hover="true" style="--hoverfill:#00cd0f4d;"></path><path d=" M 77.03338624104421 192.41404793549424 L 36.15749406617983 183.61578474310562 L 61.58127144782993 226.6656348066474 Z" fill="#00cb10" hover="true" style="--hoverfill:#00cb104d;"></path><path d=" M 151.194091914987 69.58247261905069 L 106.6259707983391 112.24299498835018 L 155.83923160398865 113.96175387023034 Z" fill="#00c017" hover="true" style="--hoverfill:#00c0174d;"></path><path d=" M 151.194091914987 69.58247261905069 L 155.83923160398865 113.96175387023034 L 186.5779381676627 110.12143599083862 Z" fill="#00ce0f" hover="true" style="--hoverfill:#00ce0f4d;"></path><path d=" M 186.17873777098168 63.0876782091275 L 186.5779381676627 110.12143599083862 L 236.96648709629693 103.90592497766048 Z" fill="#00df01" hover="true" style="--hoverfill:#00df014d;"></path><path d=" M 61.58127144782993 226.6656348066474 L 67.4262478797035 270.0649035958872 L 104.6233459149199 267.6769927505525 Z" fill="#11f200" hover="true" style="--hoverfill:#11f2004d;"></path><path d=" M 277.6064191165725 349.2520900343611 L 310.10255539005846 316.97242844753146 L 276.02579207170146 305.45886041964934 Z" fill="#d0ff84" hover="true" style="--hoverfill:#d0ff844d;"></path><path d=" M 276.02579207170146 305.45886041964934 L 310.10255539005846 316.97242844753146 L 309.05848401649905 263.40162864827727 Z" fill="#c9ff7a" hover="true" style="--hoverfill:#c9ff7a4d;"></path><path d=" M 357.9732254053877 235.3416387584928 L 349.1403682823167 190.94221017961974 L 316.1266633729175 223.63995415503237 Z" fill="#b6ff67" hover="true" style="--hoverfill:#b6ff674d;"></path><path d=" M 357.9732254053877 235.3416387584928 L 316.1266633729175 223.63995415503237 L 309.05848401649905 263.40162864827727 Z" fill="#bcff6d" hover="true" style="--hoverfill:#bcff6d4d;"></path><path d=" M 316.1266633729175 223.63995415503237 L 349.1403682823167 190.94221017961974 L 312.28767296160294 191.06510577582628 Z" fill="#a5ff58" hover="true" style="--hoverfill:#a5ff584d;"></path><path d=" M 312.9402819931929 153.53127895273656 L 314.0895006507663 114.29249941582391 L 279.6526170312026 145.9587209760815 Z" fill="#66ff2b" hover="true" style="--hoverfill:#66ff2b4d;"></path><path d=" M 106.6259707983391 112.24299498835018 L 70.67317501888036 146.54053197185218 L 116.79603128255559 151.00217050505879 Z" fill="#00bf18" hover="true" style="--hoverfill:#00bf184d;"></path><path d=" M 345.6661911123174 148.70111397044354 L 314.0895006507663 114.29249941582391 L 312.9402819931929 153.53127895273656 Z" fill="#78ff36" hover="true" style="--hoverfill:#78ff364d;"></path><path d=" M 223.9336006629906 343.756541405973 L 277.6064191165725 349.2520900343611 L 276.02579207170146 305.45886041964934 Z" fill="#c7ff79" hover="true" style="--hoverfill:#c7ff794d;"></path><path d=" M 276.3101584460268 389.129061274665 L 277.6064191165725 349.2520900343611 L 223.9336006629906 343.756541405973 Z" fill="#d5ff87" hover="true" style="--hoverfill:#d5ff874d;"></path><path d=" M 79.89889176031832 317.2602978586896 L 113.64216283445091 341.58202728650144 L 111.47201966238083 318.5001566666079 Z" fill="#5cff23" hover="true" style="--hoverfill:#5cff234d;"></path><path d=" M 111.47201966238083 318.5001566666079 L 113.64216283445091 341.58202728650144 L 143.60085100931678 342.48983350279 Z" fill="#73ff33" hover="true" style="--hoverfill:#73ff334d;"></path><path d=" M 152.55761282013663 395.1151311221287 L 192.48539268861663 384.0978336416606 L 180.89477030604934 353.37940209105994 Z" fill="#b4ff65" hover="true" style="--hoverfill:#b4ff654d;"></path><path d=" M 237.90320777831397 65.32489399245034 L 236.96648709629693 103.90592497766048 L 271.8232931750646 69.58396395022054 Z" fill="#0ff000" hover="true" style="--hoverfill:#0ff0004d;"></path><path d=" M 237.90320777831397 65.32489399245034 L 186.17873777098168 63.0876782091275 L 236.96648709629693 103.90592497766048 Z" fill="#00e001" hover="true" style="--hoverfill:#00e0014d;"></path><path d=" M 271.8232931750646 69.58396395022054 L 236.96648709629693 103.90592497766048 L 278.8329198673424 101.19037274852721 Z" fill="#1cfd00" hover="true" style="--hoverfill:#1cfd004d;"></path><path d=" M 358.8627381914074 275.6225060192028 L 357.9732254053877 235.3416387584928 L 309.05848401649905 263.40162864827727 Z" fill="#cbff7e" hover="true" style="--hoverfill:#cbff7e4d;"></path><path d=" M 186.17873777098168 63.0876782091275 L 151.194091914987 69.58247261905069 L 186.5779381676627 110.12143599083862 Z" fill="#00ca12" hover="true" style="--hoverfill:#00ca124d;"></path><path d=" M 106.6259707983391 112.24299498835018 L 73.90990963781024 103.42461053226774 L 70.67317501888036 146.54053197185218 Z" fill="#00af21" hover="true" style="--hoverfill:#00af214d;"></path><path d=" M 386.02261073540234 193.97747144512505 L 345.6661911123174 148.70111397044354 L 349.1403682823167 190.94221017961974 Z" fill="#aaff5e" hover="true" style="--hoverfill:#aaff5e4d;"></path><path d=" M 349.1403682823167 190.94221017961974 L 345.6661911123174 148.70111397044354 L 312.9402819931929 153.53127895273656 Z" fill="#93ff4a" hover="true" style="--hoverfill:#93ff4a4d;"></path><path d=" M 67.4262478797035 270.0649035958872 L 79.89889176031832 317.2602978586896 L 104.6233459149199 267.6769927505525 Z" fill="#28ff05" hover="true" style="--hoverfill:#28ff054d;"></path><path d=" M 318.5178826128811 74.81073972967606 L 271.8232931750646 69.58396395022054 L 278.8329198673424 101.19037274852721 Z" fill="#2bff07" hover="true" style="--hoverfill:#2bff074d;"></path><path d=" M 351.15841798794526 305.1731015283133 L 358.8627381914074 275.6225060192028 L 309.05848401649905 263.40162864827727 Z" fill="#d5ff88" hover="true" style="--hoverfill:#d5ff884d;"></path><path d=" M 351.15841798794526 305.1731015283133 L 309.05848401649905 263.40162864827727 L 310.10255539005846 316.97242844753146 Z" fill="#d4ff87" hover="true" style="--hoverfill:#d4ff874d;"></path><path d=" M 152.55761282013663 395.1151311221287 L 180.89477030604934 353.37940209105994 L 143.60085100931678 342.48983350279 Z" fill="#a1ff55" hover="true" style="--hoverfill:#a1ff554d;"></path><path d=" M 180.89477030604934 353.37940209105994 L 192.48539268861663 384.0978336416606 L 223.9336006629906 343.756541405973 Z" fill="#b6ff68" hover="true" style="--hoverfill:#b6ff684d;"></path><path d=" M 276.3101584460268 389.129061274665 L 303.5686336994268 351.5966257545134 L 277.6064191165725 349.2520900343611 Z" fill="#e0ff97" hover="true" style="--hoverfill:#e0ff974d;"></path><path d=" M 277.6064191165725 349.2520900343611 L 303.5686336994268 351.5966257545134 L 310.10255539005846 316.97242844753146 Z" fill="#dbff90" hover="true" style="--hoverfill:#dbff904d;"></path><path d=" M 70.67317501888036 146.54053197185218 L 36.15749406617983 183.61578474310562 L 77.03338624104421 192.41404793549424 Z" fill="#00c018" hover="true" style="--hoverfill:#00c0184d;"></path><path d=" M 61.58127144782993 226.6656348066474 L 30.632037137643515 272.22823153702484 L 67.4262478797035 270.0649035958872 Z" fill="#06e500" hover="true" style="--hoverfill:#06e5004d;"></path><path d=" M 67.4262478797035 270.0649035958872 L 22.504730714644726 303.53752272019494 L 79.89889176031832 317.2602978586896 Z" fill="#1cfd00" hover="true" style="--hoverfill:#1cfd004d;"></path><path d=" M 105.05080530744769 70.11537898681412 L 73.90990963781024 103.42461053226774 L 106.6259707983391 112.24299498835018 Z" fill="#00a824" hover="true" style="--hoverfill:#00a8244d;"></path><path d=" M 70.67317501888036 146.54053197185218 L 21.734329270130456 158.29062923098536 L 36.15749406617983 183.61578474310562 Z" fill="#00b020" hover="true" style="--hoverfill:#00b0204d;"></path><path d=" M 349.81489585035126 348.6019714320952 L 351.15841798794526 305.1731015283133 L 310.10255539005846 316.97242844753146 Z" fill="#e4ff9d" hover="true" style="--hoverfill:#e4ff9d4d;"></path><path d=" M 151.194091914987 69.58247261905069 L 105.05080530744769 70.11537898681412 L 106.6259707983391 112.24299498835018 Z" fill="#00af21" hover="true" style="--hoverfill:#00af214d;"></path><path d=" M 114.94237948242122 34.19800612340195 L 105.05080530744769 70.11537898681412 L 151.194091914987 69.58247261905069 Z" fill="#00a326" hover="true" style="--hoverfill:#00a3264d;"></path><path d=" M 20.087885572843327 222.49461457808167 L 30.632037137643515 272.22823153702484 L 61.58127144782993 226.6656348066474 Z" fill="#00d509" hover="true" style="--hoverfill:#00d5094d;"></path><path d=" M 79.89889176031832 317.2602978586896 L 79.41648925530355 349.91954172558286 L 113.64216283445091 341.58202728650144 Z" fill="#5cff23" hover="true" style="--hoverfill:#5cff234d;"></path><path d=" M 116.27496103700771 385.7453407150753 L 152.55761282013663 395.1151311221287 L 143.60085100931678 342.48983350279 Z" fill="#9bff50" hover="true" style="--hoverfill:#9bff504d;"></path><path d=" M 25.11317800943679 348.72203830226846 L 79.41648925530355 349.91954172558286 L 79.89889176031832 317.2602978586896 Z" fill="#45ff16" hover="true" style="--hoverfill:#45ff164d;"></path><path d=" M 36.15749406617983 183.61578474310562 L 20.087885572843327 222.49461457808167 L 61.58127144782993 226.6656348066474 Z" fill="#00c713" hover="true" style="--hoverfill:#00c7134d;"></path><path d=" M 357.88032901651945 111.35344274802148 L 318.5178826128811 74.81073972967606 L 314.0895006507663 114.29249941582391 Z" fill="#5fff25" hover="true" style="--hoverfill:#5fff254d;"></path><path d=" M 314.0895006507663 114.29249941582391 L 318.5178826128811 74.81073972967606 L 278.8329198673424 101.19037274852721 Z" fill="#46ff16" hover="true" style="--hoverfill:#46ff164d;"></path><path d=" M 264.53614318485126 24.429983023821787 L 234.33052569180367 35.9228223454317 L 237.90320777831397 65.32489399245034 Z" fill="#00da05" hover="true" style="--hoverfill:#00da054d;"></path><path d=" M 264.53614318485126 24.429983023821787 L 237.90320777831397 65.32489399245034 L 271.8232931750646 69.58396395022054 Z" fill="#06e700" hover="true" style="--hoverfill:#06e7004d;"></path><path d=" M 237.90320777831397 65.32489399245034 L 234.33052569180367 35.9228223454317 L 186.17873777098168 63.0876782091275 Z" fill="#00d40a" hover="true" style="--hoverfill:#00d40a4d;"></path><path d=" M 186.17873777098168 63.0876782091275 L 147.140488471389 33.064051293159565 L 151.194091914987 69.58247261905069 Z" fill="#00b61d" hover="true" style="--hoverfill:#00b61d4d;"></path><path d=" M 186.42474168559266 431.9574093749323 L 228.28354217386558 399.6910444470038 L 192.48539268861663 384.0978336416606 Z" fill="#ccff7f" hover="true" style="--hoverfill:#ccff7f4d;"></path><path d=" M 192.48539268861663 384.0978336416606 L 228.28354217386558 399.6910444470038 L 223.9336006629906 343.756541405973 Z" fill="#c7ff79" hover="true" style="--hoverfill:#c7ff794d;"></path><path d=" M 357.9732254053877 235.3416387584928 L 386.02261073540234 193.97747144512505 L 349.1403682823167 190.94221017961974 Z" fill="#bdff6f" hover="true" style="--hoverfill:#bdff6f4d;"></path><path d=" M 345.6661911123174 148.70111397044354 L 357.88032901651945 111.35344274802148 L 314.0895006507663 114.29249941582391 Z" fill="#78ff36" hover="true" style="--hoverfill:#78ff364d;"></path><path d=" M 391.37451513117327 227.31382249783982 L 386.02261073540234 193.97747144512505 L 357.9732254053877 235.3416387584928 Z" fill="#caff7c" hover="true" style="--hoverfill:#caff7c4d;"></path><path d=" M 391.37451513117327 227.31382249783982 L 357.9732254053877 235.3416387584928 L 398.87431917314933 267.52515267902896 Z" fill="#d7ff8b" hover="true" style="--hoverfill:#d7ff8b4d;"></path><path d=" M 116.27496103700771 385.7453407150753 L 143.60085100931678 342.48983350279 L 113.64216283445091 341.58202728650144 Z" fill="#86ff40" hover="true" style="--hoverfill:#86ff404d;"></path><path d=" M 228.28354217386558 399.6910444470038 L 276.3101584460268 389.129061274665 L 223.9336006629906 343.756541405973 Z" fill="#d5ff88" hover="true" style="--hoverfill:#d5ff884d;"></path><path d=" M 303.5686336994268 351.5966257545134 L 349.81489585035126 348.6019714320952 L 310.10255539005846 316.97242844753146 Z" fill="#e3ff9d" hover="true" style="--hoverfill:#e3ff9d4d;"></path><path d=" M 384.67198518876046 119.98657572542245 L 357.88032901651945 111.35344274802148 L 345.6661911123174 148.70111397044354 Z" fill="#8aff43" hover="true" style="--hoverfill:#8aff434d;"></path><path d=" M 398.87431917314933 267.52515267902896 L 357.9732254053877 235.3416387584928 L 358.8627381914074 275.6225060192028 Z" fill="#d9ff8d" hover="true" style="--hoverfill:#d9ff8d4d;"></path><path d=" M 234.33052569180367 35.9228223454317 L 185.6890250290003 29.036863680237516 L 186.17873777098168 63.0876782091275 Z" fill="#00c415" hover="true" style="--hoverfill:#00c4154d;"></path><path d=" M 79.41648925530355 349.91954172558286 L 116.27496103700771 385.7453407150753 L 113.64216283445091 341.58202728650144 Z" fill="#78ff36" hover="true" style="--hoverfill:#78ff364d;"></path><path d=" M 24.824699368917432 101.51841036834213 L 21.734329270130456 158.29062923098536 L 70.67317501888036 146.54053197185218 Z" fill="#00a027" hover="true" style="--hoverfill:#00a0274d;"></path><path d=" M 36.15749406617983 183.61578474310562 L -0.15730221094575558 189.92497658671937 L 20.087885572843327 222.49461457808167 Z" fill="#00b51d" hover="true" style="--hoverfill:#00b51d4d;"></path><path d=" M 24.824699368917432 101.51841036834213 L 70.67317501888036 146.54053197185218 L 73.90990963781024 103.42461053226774 Z" fill="#00a027" hover="true" style="--hoverfill:#00a0274d;"></path><path d=" M 185.6890250290003 29.036863680237516 L 147.140488471389 33.064051293159565 L 186.17873777098168 63.0876782091275 Z" fill="#00b41e" hover="true" style="--hoverfill:#00b41e4d;"></path><path d=" M 314.1843272401105 396.3980148734831 L 349.81489585035126 348.6019714320952 L 303.5686336994268 351.5966257545134 Z" fill="#edffab" hover="true" style="--hoverfill:#edffab4d;"></path><path d=" M 384.32638085119186 311.28828711166005 L 398.87431917314933 267.52515267902896 L 358.8627381914074 275.6225060192028 Z" fill="#e5ff9f" hover="true" style="--hoverfill:#e5ff9f4d;"></path><path d=" M -5.154167371768841 269.55966909268415 L 22.504730714644726 303.53752272019494 L 30.632037137643515 272.22823153702484 Z" fill="#01e000" hover="true" style="--hoverfill:#01e0004d;"></path><path d=" M 30.632037137643515 272.22823153702484 L 22.504730714644726 303.53752272019494 L 67.4262478797035 270.0649035958872 Z" fill="#0bed00" hover="true" style="--hoverfill:#0bed004d;"></path><path d=" M 79.41648925530355 349.91954172558286 L 76.6198738176869 394.3257382242375 L 116.27496103700771 385.7453407150753 Z" fill="#7bff39" hover="true" style="--hoverfill:#7bff394d;"></path><path d=" M 303.2774350848523 23.565140611677595 L 264.53614318485126 24.429983023821787 L 271.8232931750646 69.58396395022054 Z" fill="#0aeb00" hover="true" style="--hoverfill:#0aeb004d;"></path><path d=" M 234.33052569180367 35.9228223454317 L 228.32942397970797 -4.807493221982635 L 185.6890250290003 29.036863680237516 Z" fill="#00c017" hover="true" style="--hoverfill:#00c0174d;"></path><path d=" M 303.2774350848523 23.565140611677595 L 271.8232931750646 69.58396395022054 L 318.5178826128811 74.81073972967606 Z" fill="#1cfd00" hover="true" style="--hoverfill:#1cfd004d;"></path><path d=" M 384.32638085119186 311.28828711166005 L 358.8627381914074 275.6225060192028 L 351.15841798794526 305.1731015283133 Z" fill="#e4ff9e" hover="true" style="--hoverfill:#e4ff9e4d;"></path><path d=" M 429.92116786988527 185.72032371069466 L 395.4080939397852 151.2156408036493 L 386.02261073540234 193.97747144512505 Z" fill="#c0ff72" hover="true" style="--hoverfill:#c0ff724d;"></path><path d=" M 140.8479213068625 -5.140820406490931 L 114.94237948242122 34.19800612340195 L 147.140488471389 33.064051293159565 Z" fill="#00952a" hover="true" style="--hoverfill:#00952a4d;"></path><path d=" M 147.140488471389 33.064051293159565 L 114.94237948242122 34.19800612340195 L 151.194091914987 69.58247261905069 Z" fill="#00a426" hover="true" style="--hoverfill:#00a4264d;"></path><path d=" M 105.05080530744769 70.11537898681412 L 62.40093348811118 67.0454721440967 L 73.90990963781024 103.42461053226774 Z" fill="#00982a" hover="true" style="--hoverfill:#00982a4d;"></path><path d=" M 429.92116786988527 185.72032371069466 L 386.02261073540234 193.97747144512505 L 391.37451513117327 227.31382249783982 Z" fill="#ccff7f" hover="true" style="--hoverfill:#ccff7f4d;"></path><path d=" M 386.02261073540234 193.97747144512505 L 395.4080939397852 151.2156408036493 L 345.6661911123174 148.70111397044354 Z" fill="#acff5f" hover="true" style="--hoverfill:#acff5f4d;"></path><path d=" M 383.0674612556681 342.78002400576247 L 384.32638085119186 311.28828711166005 L 351.15841798794526 305.1731015283133 Z" fill="#edffad" hover="true" style="--hoverfill:#edffad4d;"></path><path d=" M 21.734329270130456 158.29062923098536 L -0.15730221094575558 189.92497658671937 L 36.15749406617983 183.61578474310562 Z" fill="#00ab23" hover="true" style="--hoverfill:#00ab234d;"></path><path d=" M 20.087885572843327 222.49461457808167 L -5.154167371768841 269.55966909268415 L 30.632037137643515 272.22823153702484 Z" fill="#00d10b" hover="true" style="--hoverfill:#00d10b4d;"></path><path d=" M 61.83558616926885 29.340183600481154 L 62.40093348811118 67.0454721440967 L 105.05080530744769 70.11537898681412 Z" fill="#008a2d" hover="true" style="--hoverfill:#008a2d4d;"></path><path d=" M 21.734329270130456 158.29062923098536 L -16.02264384422043 147.86145209013984 L -0.15730221094575558 189.92497658671937 Z" fill="#009c29" hover="true" style="--hoverfill:#009c294d;"></path><path d=" M 395.4080939397852 151.2156408036493 L 384.67198518876046 119.98657572542245 L 345.6661911123174 148.70111397044354 Z" fill="#9cff51" hover="true" style="--hoverfill:#9cff514d;"></path><path d=" M 357.88032901651945 111.35344274802148 L 358.78167881038416 71.99483656856333 L 318.5178826128811 74.81073972967606 Z" fill="#5fff25" hover="true" style="--hoverfill:#5fff254d;"></path><path d=" M 276.3101584460268 389.129061274665 L 314.1843272401105 396.3980148734831 L 303.5686336994268 351.5966257545134 Z" fill="#e9ffa5" hover="true" style="--hoverfill:#e9ffa54d;"></path><path d=" M 349.81489585035126 348.6019714320952 L 383.0674612556681 342.78002400576247 L 351.15841798794526 305.1731015283133 Z" fill="#eeffae" hover="true" style="--hoverfill:#eeffae4d;"></path><path d=" M 301.45474306267306 422.43381943890756 L 314.1843272401105 396.3980148734831 L 276.3101584460268 389.129061274665 Z" fill="#efffb0" hover="true" style="--hoverfill:#efffb04d;"></path><path d=" M 29.435443128877807 76.4916961168434 L 24.824699368917432 101.51841036834213 L 73.90990963781024 103.42461053226774 Z" fill="#008c2d" hover="true" style="--hoverfill:#008c2d4d;"></path><path d=" M 381.36531314658976 74.3284198435458 L 358.78167881038416 71.99483656856333 L 357.88032901651945 111.35344274802148 Z" fill="#70ff31" hover="true" style="--hoverfill:#70ff314d;"></path><path d=" M -16.71544871306812 221.29301851193824 L -5.154167371768841 269.55966909268415 L 20.087885572843327 222.49461457808167 Z" fill="#00c117" hover="true" style="--hoverfill:#00c1174d;"></path><path d=" M 111.47395621075917 421.8030057312998 L 157.6439106470994 427.5465446730333 L 152.55761282013663 395.1151311221287 Z" fill="#acff5f" hover="true" style="--hoverfill:#acff5f4d;"></path><path d=" M 152.55761282013663 395.1151311221287 L 186.42474168559266 431.9574093749323 L 192.48539268861663 384.0978336416606 Z" fill="#c0ff72" hover="true" style="--hoverfill:#c0ff724d;"></path><path d=" M 228.28354217386558 399.6910444470038 L 269.54050270844965 432.0695318721568 L 276.3101584460268 389.129061274665 Z" fill="#e3ff9c" hover="true" style="--hoverfill:#e3ff9c4d;"></path><path d=" M 111.47395621075917 421.8030057312998 L 152.55761282013663 395.1151311221287 L 116.27496103700771 385.7453407150753 Z" fill="#a4ff58" hover="true" style="--hoverfill:#a4ff584d;"></path><path d=" M 157.6439106470994 427.5465446730333 L 186.42474168559266 431.9574093749323 L 152.55761282013663 395.1151311221287 Z" fill="#baff6b" hover="true" style="--hoverfill:#baff6b4d;"></path><path d=" M 25.11317800943679 348.72203830226846 L 79.89889176031832 317.2602978586896 L 22.504730714644726 303.53752272019494 Z" fill="#26ff03" hover="true" style="--hoverfill:#26ff034d;"></path><path d=" M 25.11317800943679 348.72203830226846 L 76.6198738176869 394.3257382242375 L 79.41648925530355 349.91954172558286 Z" fill="#5aff22" hover="true" style="--hoverfill:#5aff224d;"></path><path d=" M 351.1156996565037 28.788171038859645 L 303.2774350848523 23.565140611677595 L 318.5178826128811 74.81073972967606 Z" fill="#26ff04" hover="true" style="--hoverfill:#26ff044d;"></path><path d=" M 186.42474168559266 431.9574093749323 L 233.14968167210122 433.7215995413761 L 228.28354217386558 399.6910444470038 Z" fill="#d2ff85" hover="true" style="--hoverfill:#d2ff854d;"></path><path d=" M 356.47422255385004 391.4009217654028 L 383.0674612556681 342.78002400576247 L 349.81489585035126 348.6019714320952 Z" fill="#f6ffbe" hover="true" style="--hoverfill:#f6ffbe4d;"></path><path d=" M 430.3333483261627 274.9548149554676 L 436.2778780573978 224.99225294704323 L 398.87431917314933 267.52515267902896 Z" fill="#e2ff9a" hover="true" style="--hoverfill:#e2ff9a4d;"></path><path d=" M -0.15730221094575558 189.92497658671937 L -16.71544871306812 221.29301851193824 L 20.087885572843327 222.49461457808167 Z" fill="#00b31e" hover="true" style="--hoverfill:#00b31e4d;"></path><path d=" M -16.02264384422043 147.86145209013984 L -16.71544871306812 221.29301851193824 L -0.15730221094575558 189.92497658671937 Z" fill="#00a525" hover="true" style="--hoverfill:#00a5254d;"></path><path d=" M -12.48102511841298 309.46987959868596 L 25.11317800943679 348.72203830226846 L 22.504730714644726 303.53752272019494 Z" fill="#11f200" hover="true" style="--hoverfill:#11f2004d;"></path><path d=" M 62.40093348811118 67.0454721440967 L 29.435443128877807 76.4916961168434 L 73.90990963781024 103.42461053226774 Z" fill="#008c2d" hover="true" style="--hoverfill:#008c2d4d;"></path><path d=" M -8.803464331224697 113.1979322191046 L -16.02264384422043 147.86145209013984 L 21.734329270130456 158.29062923098536 Z" fill="#008e2d" hover="true" style="--hoverfill:#008e2d4d;"></path><path d=" M 36.128946499061044 21.97225815087667 L 29.435443128877807 76.4916961168434 L 62.40093348811118 67.0454721440967 Z" fill="#007830" hover="true" style="--hoverfill:#0078304d;"></path><path d=" M 278.4545276665369 -8.779612071377546 L 228.32942397970797 -4.807493221982635 L 264.53614318485126 24.429983023821787 Z" fill="#00cd0f" hover="true" style="--hoverfill:#00cd0f4d;"></path><path d=" M 264.53614318485126 24.429983023821787 L 228.32942397970797 -4.807493221982635 L 234.33052569180367 35.9228223454317 Z" fill="#00cc0f" hover="true" style="--hoverfill:#00cc0f4d;"></path><path d=" M 185.6890250290003 29.036863680237516 L 140.8479213068625 -5.140820406490931 L 147.140488471389 33.064051293159565 Z" fill="#00a127" hover="true" style="--hoverfill:#00a1274d;"></path><path d=" M 157.6439106470994 427.5465446730333 L 64.63389240856314 431.9818188745016 L 186.42474168559266 431.9574093749323 Z" fill="#a9ff5c" hover="true" style="--hoverfill:#a9ff5c4d;"></path><path d=" M 76.6198738176869 394.3257382242375 L 111.47395621075917 421.8030057312998 L 116.27496103700771 385.7453407150753 Z" fill="#93ff4a" hover="true" style="--hoverfill:#93ff4a4d;"></path><path d=" M 233.14968167210122 433.7215995413761 L 269.54050270844965 432.0695318721568 L 228.28354217386558 399.6910444470038 Z" fill="#deff94" hover="true" style="--hoverfill:#deff944d;"></path><path d=" M 314.1843272401105 396.3980148734831 L 356.47422255385004 391.4009217654028 L 349.81489585035126 348.6019714320952 Z" fill="#f4ffbb" hover="true" style="--hoverfill:#f4ffbb4d;"></path><path d=" M 269.54050270844965 432.0695318721568 L 301.45474306267306 422.43381943890756 L 276.3101584460268 389.129061274665 Z" fill="#ebffa8" hover="true" style="--hoverfill:#ebffa84d;"></path><path d=" M 358.78167881038416 71.99483656856333 L 351.1156996565037 28.788171038859645 L 318.5178826128811 74.81073972967606 Z" fill="#47ff17" hover="true" style="--hoverfill:#47ff174d;"></path><path d=" M 384.67198518876046 119.98657572542245 L 381.36531314658976 74.3284198435458 L 357.88032901651945 111.35344274802148 Z" fill="#83ff3e" hover="true" style="--hoverfill:#83ff3e4d;"></path><path d=" M 432.4752784623478 103.69779346937084 L 381.36531314658976 74.3284198435458 L 384.67198518876046 119.98657572542245 Z" fill="#92ff48" hover="true" style="--hoverfill:#92ff484d;"></path><path d=" M 436.2778780573978 224.99225294704323 L 429.92116786988527 185.72032371069466 L 391.37451513117327 227.31382249783982 Z" fill="#d1ff84" hover="true" style="--hoverfill:#d1ff844d;"></path><path d=" M 395.4080939397852 151.2156408036493 L 430.64346366353845 152.40060383288244 L 384.67198518876046 119.98657572542245 Z" fill="#acff5f" hover="true" style="--hoverfill:#acff5f4d;"></path><path d=" M 436.2778780573978 224.99225294704323 L 391.37451513117327 227.31382249783982 L 398.87431917314933 267.52515267902896 Z" fill="#dcff92" hover="true" style="--hoverfill:#dcff924d;"></path><path d=" M -8.803464331224697 113.1979322191046 L 21.734329270130456 158.29062923098536 L 24.824699368917432 101.51841036834213 Z" fill="#008c2d" hover="true" style="--hoverfill:#008c2d4d;"></path><path d=" M 228.32942397970797 -4.807493221982635 L 182.63173014743904 -12.316257623712508 L 185.6890250290003 29.036863680237516 Z" fill="#00ae21" hover="true" style="--hoverfill:#00ae214d;"></path><path d=" M 114.94237948242122 34.19800612340195 L 61.83558616926885 29.340183600481154 L 105.05080530744769 70.11537898681412 Z" fill="#008d2d" hover="true" style="--hoverfill:#008d2d4d;"></path><path d=" M 182.63173014743904 -12.316257623712508 L 140.8479213068625 -5.140820406490931 L 185.6890250290003 29.036863680237516 Z" fill="#009f27" hover="true" style="--hoverfill:#009f274d;"></path><path d=" M 342.2981914724606 424.7499053206422 L 356.47422255385004 391.4009217654028 L 314.1843272401105 396.3980148734831 Z" fill="#f8ffc4" hover="true" style="--hoverfill:#f8ffc44d;"></path><path d=" M 430.3333483261627 274.9548149554676 L 398.87431917314933 267.52515267902896 L 434.35740602122286 306.09511441237686 Z" fill="#ebffa8" hover="true" style="--hoverfill:#ebffa84d;"></path><path d=" M -16.71544871306812 221.29301851193824 L -12.48102511841298 309.46987959868596 L -5.154167371768841 269.55966909268415 Z" fill="#00d00d" hover="true" style="--hoverfill:#00d00d4d;"></path><path d=" M -5.154167371768841 269.55966909268415 L -12.48102511841298 309.46987959868596 L 22.504730714644726 303.53752272019494 Z" fill="#00df01" hover="true" style="--hoverfill:#00df014d;"></path><path d=" M 434.35740602122286 306.09511441237686 L 398.87431917314933 267.52515267902896 L 384.32638085119186 311.28828711166005 Z" fill="#eeffaf" hover="true" style="--hoverfill:#eeffaf4d;"></path><path d=" M 434.35740602122286 306.09511441237686 L 384.32638085119186 311.28828711166005 L 383.0674612556681 342.78002400576247 Z" fill="#f4ffbc" hover="true" style="--hoverfill:#f4ffbc4d;"></path><path d=" M 62.674214448836494 -8.641900154496609 L 61.83558616926885 29.340183600481154 L 114.94237948242122 34.19800612340195 Z" fill="#007830" hover="true" style="--hoverfill:#0078304d;"></path><path d=" M -15.415443187348998 77.09831222851531 L -8.803464331224697 113.1979322191046 L 24.824699368917432 101.51841036834213 Z" fill="#007830" hover="true" style="--hoverfill:#0078304d;"></path><path d=" M -15.415443187348998 77.09831222851531 L 24.824699368917432 101.51841036834213 L 29.435443128877807 76.4916961168434 Z" fill="#007830" hover="true" style="--hoverfill:#0078304d;"></path><path d=" M 436.2778780573978 224.99225294704323 L 430.64346366353845 152.40060383288244 L 429.92116786988527 185.72032371069466 Z" fill="#c6ff77" hover="true" style="--hoverfill:#c6ff774d;"></path><path d=" M 429.92116786988527 185.72032371069466 L 430.64346366353845 152.40060383288244 L 395.4080939397852 151.2156408036493 Z" fill="#b9ff6a" hover="true" style="--hoverfill:#b9ff6a4d;"></path><path d=" M 303.2774350848523 23.565140611677595 L 278.4545276665369 -8.779612071377546 L 264.53614318485126 24.429983023821787 Z" fill="#00df02" hover="true" style="--hoverfill:#00df024d;"></path><path d=" M 228.32942397970797 -4.807493221982635 L 278.4545276665369 -8.779612071377546 L 182.63173014743904 -12.316257623712508 Z" fill="#00bc19" hover="true" style="--hoverfill:#00bc194d;"></path><path d=" M 312.4539506346006 -12.655979738754613 L 278.4545276665369 -8.779612071377546 L 303.2774350848523 23.565140611677595 Z" fill="#01e000" hover="true" style="--hoverfill:#01e0004d;"></path><path d=" M 394.72475258150695 29.674812144502248 L 351.1156996565037 28.788171038859645 L 358.78167881038416 71.99483656856333 Z" fill="#50ff1c" hover="true" style="--hoverfill:#50ff1c4d;"></path><path d=" M 182.63173014743904 -12.316257623712508 L 117.6955777458669 -11.735005210344788 L 140.8479213068625 -5.140820406490931 Z" fill="#00922c" hover="true" style="--hoverfill:#00922c4d;"></path><path d=" M 140.8479213068625 -5.140820406490931 L 117.6955777458669 -11.735005210344788 L 114.94237948242122 34.19800612340195 Z" fill="#00892e" hover="true" style="--hoverfill:#00892e4d;"></path><path d=" M 430.3333483261627 274.9548149554676 L 434.35740602122286 306.09511441237686 L 436.2778780573978 224.99225294704323 Z" fill="#e6ffa1" hover="true" style="--hoverfill:#e6ffa14d;"></path><path d=" M 435.8767633417539 358.95003907105047 L 434.35740602122286 306.09511441237686 L 383.0674612556681 342.78002400576247 Z" fill="#f7ffc4" hover="true" style="--hoverfill:#f7ffc44d;"></path><path d=" M 301.45474306267306 422.43381943890756 L 342.2981914724606 424.7499053206422 L 314.1843272401105 396.3980148734831 Z" fill="#f4ffbb" hover="true" style="--hoverfill:#f4ffbb4d;"></path><path d=" M 356.47422255385004 391.4009217654028 L 381.30048770877954 398.29610073008854 L 383.0674612556681 342.78002400576247 Z" fill="#faffcc" hover="true" style="--hoverfill:#faffcc4d;"></path><path d=" M 269.54050270844965 432.0695318721568 L 342.2981914724606 424.7499053206422 L 301.45474306267306 422.43381943890756 Z" fill="#f1ffb3" hover="true" style="--hoverfill:#f1ffb34d;"></path><path d=" M 25.11317800943679 348.72203830226846 L 25.149475180056584 393.194834055955 L 76.6198738176869 394.3257382242375 Z" fill="#57ff21" hover="true" style="--hoverfill:#57ff214d;"></path><path d=" M 76.6198738176869 394.3257382242375 L 64.63389240856314 431.9818188745016 L 111.47395621075917 421.8030057312998 Z" fill="#88ff41" hover="true" style="--hoverfill:#88ff414d;"></path><path d=" M -17.800059270811758 351.4704178999937 L 25.149475180056584 393.194834055955 L 25.11317800943679 348.72203830226846 Z" fill="#2eff08" hover="true" style="--hoverfill:#2eff084d;"></path><path d=" M 342.2981914724606 424.7499053206422 L 381.30048770877954 398.29610073008854 L 356.47422255385004 391.4009217654028 Z" fill="#fbffd1" hover="true" style="--hoverfill:#fbffd14d;"></path><path d=" M 343.90632688742755 -2.0178036853220105 L 312.4539506346006 -12.655979738754613 L 303.2774350848523 23.565140611677595 Z" fill="#0bed00" hover="true" style="--hoverfill:#0bed004d;"></path><path d=" M 278.4545276665369 -8.779612071377546 L 312.4539506346006 -12.655979738754613 L 182.63173014743904 -12.316257623712508 Z" fill="#00cb10" hover="true" style="--hoverfill:#00cb104d;"></path><path d=" M 25.149475180056584 393.194834055955 L 64.63389240856314 431.9818188745016 L 76.6198738176869 394.3257382242375 Z" fill="#73ff32" hover="true" style="--hoverfill:#73ff324d;"></path><path d=" M 111.47395621075917 421.8030057312998 L 64.63389240856314 431.9818188745016 L 157.6439106470994 427.5465446730333 Z" fill="#9aff4f" hover="true" style="--hoverfill:#9aff4f4d;"></path><path d=" M 186.42474168559266 431.9574093749323 L 22.179224369230695 438.7401684827509 L 233.14968167210122 433.7215995413761 Z" fill="#b0ff62" hover="true" style="--hoverfill:#b0ff624d;"></path><path d=" M 436.2778780573978 224.99225294704323 L 432.4752784623478 103.69779346937084 L 430.64346366353845 152.40060383288244 Z" fill="#b7ff68" hover="true" style="--hoverfill:#b7ff684d;"></path><path d=" M 430.64346366353845 152.40060383288244 L 432.4752784623478 103.69779346937084 L 384.67198518876046 119.98657572542245 Z" fill="#a3ff57" hover="true" style="--hoverfill:#a3ff574d;"></path><path d=" M 399.1646452705184 -8.413125595054321 L 343.90632688742755 -2.0178036853220105 L 351.1156996565037 28.788171038859645 Z" fill="#29ff06" hover="true" style="--hoverfill:#29ff064d;"></path><path d=" M 351.1156996565037 28.788171038859645 L 343.90632688742755 -2.0178036853220105 L 303.2774350848523 23.565140611677595 Z" fill="#18fa00" hover="true" style="--hoverfill:#18fa004d;"></path><path d=" M 62.674214448836494 -8.641900154496609 L 36.128946499061044 21.97225815087667 L 61.83558616926885 29.340183600481154 Z" fill="#006930" hover="true" style="--hoverfill:#0069304d;"></path><path d=" M 61.83558616926885 29.340183600481154 L 36.128946499061044 21.97225815087667 L 62.40093348811118 67.0454721440967 Z" fill="#007530" hover="true" style="--hoverfill:#0075304d;"></path><path d=" M -12.48102511841298 309.46987959868596 L -17.800059270811758 351.4704178999937 L 25.11317800943679 348.72203830226846 Z" fill="#13f300" hover="true" style="--hoverfill:#13f3004d;"></path><path d=" M 25.149475180056584 393.194834055955 L 22.179224369230695 438.7401684827509 L 64.63389240856314 431.9818188745016 Z" fill="#64ff29" hover="true" style="--hoverfill:#64ff294d;"></path><path d=" M -16.71544871306812 221.29301851193824 L -17.800059270811758 351.4704178999937 L -12.48102511841298 309.46987959868596 Z" fill="#00de01" hover="true" style="--hoverfill:#00de014d;"></path><path d=" M -14.19804706492446 21.21151504702595 L -15.415443187348998 77.09831222851531 L 29.435443128877807 76.4916961168434 Z" fill="#00632f" hover="true" style="--hoverfill:#00632f4d;"></path><path d=" M -8.803464331224697 113.1979322191046 L -15.415443187348998 77.09831222851531 L -16.02264384422043 147.86145209013984 Z" fill="#00802f" hover="true" style="--hoverfill:#00802f4d;"></path><path d=" M -16.02264384422043 147.86145209013984 L -14.79728919604252 -10.595120917823046 L -16.71544871306812 221.29301851193824 Z" fill="#00832f" hover="true" style="--hoverfill:#00832f4d;"></path><path d=" M 394.72475258150695 29.674812144502248 L 358.78167881038416 71.99483656856333 L 381.36531314658976 74.3284198435458 Z" fill="#64ff28" hover="true" style="--hoverfill:#64ff284d;"></path><path d=" M 117.6955777458669 -11.735005210344788 L 62.674214448836494 -8.641900154496609 L 114.94237948242122 34.19800612340195 Z" fill="#007a2f" hover="true" style="--hoverfill:#007a2f4d;"></path><path d=" M 36.128946499061044 21.97225815087667 L -14.19804706492446 21.21151504702595 L 29.435443128877807 76.4916961168434 Z" fill="#006330" hover="true" style="--hoverfill:#0063304d;"></path><path d=" M 436.89292713845003 66.13749032570979 L 394.72475258150695 29.674812144502248 L 381.36531314658976 74.3284198435458 Z" fill="#74ff33" hover="true" style="--hoverfill:#74ff334d;"></path><path d=" M 433.31999439547633 387.5240498105785 L 435.8767633417539 358.95003907105047 L 383.0674612556681 342.78002400576247 Z" fill="#fcffd2" hover="true" style="--hoverfill:#fcffd24d;"></path><path d=" M 434.35740602122286 306.09511441237686 L 435.8767633417539 358.95003907105047 L 436.2778780573978 224.99225294704323 Z" fill="#efffb0" hover="true" style="--hoverfill:#efffb04d;"></path><path d=" M 432.4752784623478 103.69779346937084 L 436.89292713845003 66.13749032570979 L 381.36531314658976 74.3284198435458 Z" fill="#86ff40" hover="true" style="--hoverfill:#86ff404d;"></path><path d=" M 436.2778780573978 224.99225294704323 L 436.89292713845003 66.13749032570979 L 432.4752784623478 103.69779346937084 Z" fill="#a7ff5a" hover="true" style="--hoverfill:#a7ff5a4d;"></path><path d=" M 435.8767633417539 358.95003907105047 L 436.89292713845003 66.13749032570979 L 436.2778780573978 224.99225294704323 Z" fill="#d3ff86" hover="true" style="--hoverfill:#d3ff864d;"></path><path d=" M -17.800059270811758 351.4704178999937 L -15.842447916012393 393.4881449793675 L 25.149475180056584 393.194834055955 Z" fill="#32ff0b" hover="true" style="--hoverfill:#32ff0b4d;"></path><path d=" M 62.674214448836494 -8.641900154496609 L 27.82200550653558 -3.6610529348129583 L 36.128946499061044 21.97225815087667 Z" fill="#005d2f" hover="true" style="--hoverfill:#005d2f4d;"></path><path d=" M -16.348889552419493 433.6995033665437 L 22.179224369230695 438.7401684827509 L 25.149475180056584 393.194834055955 Z" fill="#4eff1b" hover="true" style="--hoverfill:#4eff1b4d;"></path><path d=" M 64.63389240856314 431.9818188745016 L 22.179224369230695 438.7401684827509 L 186.42474168559266 431.9574093749323 Z" fill="#8cff44" hover="true" style="--hoverfill:#8cff444d;"></path><path d=" M 381.30048770877954 398.29610073008854 L 433.31999439547633 387.5240498105785 L 383.0674612556681 342.78002400576247 Z" fill="#fdffd8" hover="true" style="--hoverfill:#fdffd84d;"></path><path d=" M 397.9236748812367 428.10220816091527 L 433.31999439547633 387.5240498105785 L 381.30048770877954 398.29610073008854 Z" fill="#ffffe5" hover="true" style="--hoverfill:#ffffe54d;"></path><path d=" M 269.54050270844965 432.0695318721568 L 397.9236748812367 428.10220816091527 L 342.2981914724606 424.7499053206422 Z" fill="#f8ffc4" hover="true" style="--hoverfill:#f8ffc44d;"></path><path d=" M 342.2981914724606 424.7499053206422 L 397.9236748812367 428.10220816091527 L 381.30048770877954 398.29610073008854 Z" fill="#fdffd8" hover="true" style="--hoverfill:#fdffd84d;"></path><path d=" M 430.9795648485864 430.6712051676694 L 397.9236748812367 428.10220816091527 L 269.54050270844965 432.0695318721568 Z" fill="#fcffd4" hover="true" style="--hoverfill:#fcffd44d;"></path><path d=" M 436.89292713845003 66.13749032570979 L 427.88466521275143 31.48553366322249 L 394.72475258150695 29.674812144502248 Z" fill="#68ff2b" hover="true" style="--hoverfill:#68ff2b4d;"></path><path d=" M 394.72475258150695 29.674812144502248 L 399.1646452705184 -8.413125595054321 L 351.1156996565037 28.788171038859645 Z" fill="#43ff15" hover="true" style="--hoverfill:#43ff154d;"></path><path d=" M 27.82200550653558 -3.6610529348129583 L -14.19804706492446 21.21151504702595 L 36.128946499061044 21.97225815087667 Z" fill="#00552e" hover="true" style="--hoverfill:#00552e4d;"></path><path d=" M 427.88466521275143 31.48553366322249 L 399.1646452705184 -8.413125595054321 L 394.72475258150695 29.674812144502248 Z" fill="#53ff1f" hover="true" style="--hoverfill:#53ff1f4d;"></path><path d=" M 343.90632688742755 -2.0178036853220105 L 399.1646452705184 -8.413125595054321 L 312.4539506346006 -12.655979738754613 Z" fill="#1afb00" hover="true" style="--hoverfill:#1afb004d;"></path><path d=" M -17.800059270811758 351.4704178999937 L -16.348889552419493 433.6995033665437 L -15.842447916012393 393.4881449793675 Z" fill="#3eff12" hover="true" style="--hoverfill:#3eff124d;"></path><path d=" M -15.842447916012393 393.4881449793675 L -16.348889552419493 433.6995033665437 L 25.149475180056584 393.194834055955 Z" fill="#45ff16" hover="true" style="--hoverfill:#45ff164d;"></path><path d=" M 233.14968167210122 433.7215995413761 L 430.9795648485864 430.6712051676694 L 269.54050270844965 432.0695318721568 Z" fill="#f2ffb7" hover="true" style="--hoverfill:#f2ffb74d;"></path><path d=" M 397.9236748812367 428.10220816091527 L 430.9795648485864 430.6712051676694 L 433.31999439547633 387.5240498105785 Z" fill="#ffffe5" hover="true" style="--hoverfill:#ffffe54d;"></path><path d=" M 433.31999439547633 387.5240498105785 L 430.9795648485864 430.6712051676694 L 435.8767633417539 358.95003907105047 Z" fill="#ffffe1" hover="true" style="--hoverfill:#ffffe14d;"></path><path d=" M 22.179224369230695 438.7401684827509 L 430.9795648485864 430.6712051676694 L 233.14968167210122 433.7215995413761 Z" fill="#d8ff8c" hover="true" style="--hoverfill:#d8ff8c4d;"></path><path d=" M 62.674214448836494 -8.641900154496609 L -14.79728919604252 -10.595120917823046 L 27.82200550653558 -3.6610529348129583 Z" fill="#00522d" hover="true" style="--hoverfill:#00522d4d;"></path><path d=" M 27.82200550653558 -3.6610529348129583 L -14.79728919604252 -10.595120917823046 L -14.19804706492446 21.21151504702595 Z" fill="#00462a" hover="true" style="--hoverfill:#00462a4d;"></path><path d=" M -14.19804706492446 21.21151504702595 L -14.79728919604252 -10.595120917823046 L -15.415443187348998 77.09831222851531 Z" fill="#00542d" hover="true" style="--hoverfill:#00542d4d;"></path><path d=" M -15.415443187348998 77.09831222851531 L -14.79728919604252 -10.595120917823046 L -16.02264384422043 147.86145209013984 Z" fill="#006a30" hover="true" style="--hoverfill:#006a304d;"></path><path d=" M -16.71544871306812 221.29301851193824 L -14.79728919604252 -10.595120917823046 L -17.800059270811758 351.4704178999937 Z" fill="#00a625" hover="true" style="--hoverfill:#00a6254d;"></path><path d=" M 117.6955777458669 -11.735005210344788 L -14.79728919604252 -10.595120917823046 L 62.674214448836494 -8.641900154496609 Z" fill="#00622f" hover="true" style="--hoverfill:#00622f4d;"></path><path d=" M 422.5928631789098 -18.951527365184933 L -14.79728919604252 -10.595120917823046 L 117.6955777458669 -11.735005210344788 Z" fill="#00a027" hover="true" style="--hoverfill:#00a0274d;"></path><path d=" M 436.89292713845003 66.13749032570979 L 422.5928631789098 -18.951527365184933 L 427.88466521275143 31.48553366322249 Z" fill="#5bff23" hover="true" style="--hoverfill:#5bff234d;"></path><path d=" M 427.88466521275143 31.48553366322249 L 422.5928631789098 -18.951527365184933 L 399.1646452705184 -8.413125595054321 Z" fill="#46ff16" hover="true" style="--hoverfill:#46ff164d;"></path><path d=" M 399.1646452705184 -8.413125595054321 L 422.5928631789098 -18.951527365184933 L 312.4539506346006 -12.655979738754613 Z" fill="#32ff0a" hover="true" style="--hoverfill:#32ff0a4d;"></path><path d=" M 312.4539506346006 -12.655979738754613 L 422.5928631789098 -18.951527365184933 L 182.63173014743904 -12.316257623712508 Z" fill="#04e300" hover="true" style="--hoverfill:#04e3004d;"></path><path d=" M 182.63173014743904 -12.316257623712508 L 422.5928631789098 -18.951527365184933 L 117.6955777458669 -11.735005210344788 Z" fill="#00c216" hover="true" style="--hoverfill:#00c2164d;"></path></svg>